Comic Neue Angular Light Oblique.ufo
<glyph name="slash" format="1">
  <advance width="482"/>
  <unicode hex="002F"/>
  <outline>
    <contour>
      <point x="513" y="700" type="line"/>
      <point x="-19" y="0" type="line"/>
      <point x="20" y="0" type="line"/>
      <point x="553" y="700" type="line"/>
    </contour>
  </outline>
</glyph>
<glyph name="three" format="1">
  <advance width="539"/>
  <unicode hex="0033"/>
  <outline>
    <contour>
      <point x="444" y="417"/>
      <point x="525" y="482"/>
      <point x="525" y="570" type="curve" smooth="yes"/>
      <point x="525" y="639"/>
      <point x="457" y="691"/>
      <point x="359" y="691" type="curve" smooth="yes"/>
      <point x="276" y="691"/>
      <point x="206" y="646"/>
      <point x="175" y="623" type="curve"/>
      <point x="195" y="597" type="line"/>
      <point x="221" y="616"/>
      <point x="283" y="655"/>
      <point x="352" y="655" type="curve" smooth="yes"/>
      <point x="439" y="655"/>
      <point x="486" y="609"/>
      <point x="486" y="562" type="curve" smooth="yes"/>
      <point x="486" y="482"/>
      <point x="387" y="415"/>
      <point x="260" y="403" type="curve"/>
      <point x="254" y="367" type="line"/>
      <point x="350" y="363"/>
      <point x="432" y="332"/>
      <point x="432" y="240" type="curve" smooth="yes"/>
      <point x="432" y="127"/>
      <point x="334" y="31"/>
      <point x="226" y="31" type="curve" smooth="yes"/>
      <point x="152" y="31"/>
      <point x="92" y="74"/>
      <point x="79" y="136" type="curve"/>
      <point x="43" y="121" type="line"/>
      <point x="57" y="35"/>
      <point x="136" y="-4"/>
      <point x="219" y="-4" type="curve" smooth="yes"/>
      <point x="300" y="-4"/>
      <point x="472" y="63"/>
      <point x="472" y="251" type="curve" smooth="yes"/>
      <point x="472" y="317"/>
      <point x="437" y="362"/>
      <point x="356" y="390" type="curve"/>
    </contour>
  </outline>
</glyph>
<glyph name="five" format="1">
  <advance width="552"/>
  <unicode hex="0035"/>
  <outline>
    <contour>
      <point x="357" y="0"/>
      <point x="502" y="143"/>
      <point x="502" y="310" type="curve" smooth="yes"/>
      <point x="502" y="402"/>
      <point x="450" y="483"/>
      <point x="343" y="483" type="curve" smooth="yes"/>
      <point x="282" y="483"/>
      <point x="222" y="454"/>
      <point x="173" y="422" type="curve"/>
      <point x="243" y="645" type="line"/>
      <point x="547" y="645" type="line"/>
      <point x="561" y="679" type="line"/>
      <point x="220" y="679" type="line"/>
      <point x="126" y="377" type="line"/>
      <point x="157" y="365" type="line"/>
      <point x="199" y="412"/>
      <point x="270" y="449"/>
      <point x="336" y="449" type="curve" smooth="yes"/>
      <point x="406" y="449"/>
      <point x="470" y="400"/>
      <point x="470" y="309" type="curve" smooth="yes"/>
      <point x="470" y="177"/>
      <point x="353" y="34"/>
      <point x="215" y="34" type="curve" smooth="yes"/>
      <point x="160" y="34"/>
      <point x="97" y="66"/>
      <point x="77" y="134" type="curve"/>
      <point x="42" y="122" type="line"/>
      <point x="75" y="28"/>
      <point x="158" y="0"/>
      <point x="208" y="0" type="curve" smooth="yes"/>
    </contour>
  </outline>
</glyph>
<glyph name="eight" format="1">
  <advance width="537"/>
  <unicode hex="0038"/>
  <outline>
    <contour>
      <point x="343" y="-3"/>
      <point x="465" y="96"/>
      <point x="465" y="221" type="curve" smooth="yes"/>
      <point x="465" y="285"/>
      <point x="426" y="341"/>
      <point x="357" y="380" type="curve"/>
      <point x="435" y="415"/>
      <point x="521" y="471"/>
      <point x="521" y="570" type="curve" smooth="yes"/>
      <point x="521" y="644"/>
      <point x="465" y="694"/>
      <point x="376" y="694" type="curve" smooth="yes"/>
      <point x="275" y="694"/>
      <point x="155" y="619"/>
      <point x="155" y="494" type="curve" smooth="yes"/>
      <point x="155" y="436"/>
      <point x="198" y="398"/>
      <point x="251" y="373" type="curve"/>
      <point x="165" y="334"/>
      <point x="47" y="264"/>
      <point x="47" y="139" type="curve" smooth="yes"/>
      <point x="47" y="55"/>
      <point x="113" y="-3"/>
      <point x="217" y="-3" type="curve" smooth="yes"/>
    </contour>
    <contour>
      <point x="360" y="337"/>
      <point x="427" y="289"/>
      <point x="427" y="213" type="curve" smooth="yes"/>
      <point x="427" y="89"/>
      <point x="307" y="33"/>
      <point x="225" y="33" type="curve" smooth="yes"/>
      <point x="141" y="33"/>
      <point x="83" y="78"/>
      <point x="83" y="144" type="curve" smooth="yes"/>
      <point x="83" y="271"/>
      <point x="209" y="326"/>
      <point x="294" y="358" type="curve"/>
    </contour>
    <contour>
      <point x="235" y="420"/>
      <point x="191" y="452"/>
      <point x="191" y="503" type="curve" smooth="yes"/>
      <point x="191" y="586"/>
      <point x="275" y="656"/>
      <point x="368" y="656" type="curve" smooth="yes"/>
      <point x="436" y="656"/>
      <point x="485" y="622"/>
      <point x="485" y="567" type="curve" smooth="yes"/>
      <point x="485" y="474"/>
      <point x="415" y="435"/>
      <point x="317" y="396" type="curve"/>
    </contour>
  </outline>
</glyph>
<glyph name="question" format="1">
  <advance width="532"/>
  <unicode hex="003F"/>
  <outline>
    <contour>
      <point x="160" y="73" type="line"/>
      <point x="122" y="66" type="line"/>
      <point x="102" y="2" type="line"/>
      <point x="140" y="9" type="line"/>
    </contour>
    <contour>
      <point x="163" y="201" type="line"/>
      <point x="174" y="170" type="line"/>
      <point x="363" y="311" type="line" smooth="yes"/>
      <point x="431" y="362"/>
      <point x="534" y="438"/>
      <point x="534" y="564" type="curve" smooth="yes"/>
      <point x="534" y="659"/>
      <point x="465" y="722"/>
      <point x="352" y="722" type="curve" smooth="yes"/>
      <point x="252" y="722"/>
      <point x="174" y="652"/>
      <point x="140" y="616" type="curve"/>
      <point x="160" y="592" type="line"/>
      <point x="186" y="621"/>
      <point x="255" y="686"/>
      <point x="344" y="686" type="curve" smooth="yes"/>
      <point x="458" y="686"/>
      <point x="498" y="625"/>
      <point x="498" y="557" type="curve" smooth="yes"/>
      <point x="498" y="455"/>
      <point x="414" y="390"/>
      <point x="349" y="341" type="curve" smooth="yes"/>
    </contour>
  </outline>
</glyph>
<glyph name="A" format="1">
  <advance width="613"/>
  <unicode hex="0041"/>
  <outline>
    <contour>
      <point x="444" y="679" type="line"/>
      <point x="382" y="668" type="line"/>
      <point x="133" y="241" type="line"/>
      <point x="57" y="227" type="line"/>
      <point x="57" y="191" type="line"/>
      <point x="107" y="201" type="line"/>
      <point x="3" y="22" type="line"/>
      <point x="32" y="4" type="line"/>
      <point x="153" y="211" type="line"/>
      <point x="453" y="271" type="line"/>
      <point x="484" y="7" type="line"/>
      <point x="519" y="29" type="line"/>
    </contour>
    <contour>
      <point x="178" y="251" type="line"/>
      <point x="409" y="646" type="line"/>
      <point x="448" y="304" type="line"/>
    </contour>
  </outline>
</glyph>
<glyph name="B" format="1">
  <advance width="592"/>
  <unicode hex="0042"/>
  <outline>
    <contour>
      <point x="518" y="393"/>
      <point x="544" y="486"/>
      <point x="544" y="548" type="curve" smooth="yes"/>
      <point x="544" y="631"/>
      <point x="480" y="681"/>
      <point x="364" y="681" type="curve" smooth="yes"/>
      <point x="157" y="681" type="line"/>
      <point x="13" y="0" type="line"/>
      <point x="71" y="0" type="line" smooth="yes"/>
      <point x="198" y="0"/>
      <point x="539" y="24"/>
      <point x="539" y="231" type="curve" smooth="yes"/>
      <point x="539" y="313"/>
      <point x="465" y="364"/>
      <point x="369" y="364" type="curve"/>
    </contour>
    <contour>
      <point x="120" y="342" type="line"/>
      <point x="320" y="342" type="line" smooth="yes"/>
      <point x="391" y="342"/>
      <point x="504" y="323"/>
      <point x="504" y="228" type="curve" smooth="yes"/>
      <point x="504" y="64"/>
      <point x="203" y="34"/>
      <point x="79" y="34" type="curve" smooth="yes"/>
      <point x="70" y="34"/>
      <point x="68" y="34"/>
      <point x="55" y="35" type="curve"/>
    </contour>
    <contour>
      <point x="185" y="646" type="line"/>
      <point x="357" y="646" type="line" smooth="yes"/>
      <point x="477" y="646"/>
      <point x="509" y="596"/>
      <point x="509" y="543" type="curve" smooth="yes"/>
      <point x="509" y="409"/>
      <point x="372" y="376"/>
      <point x="281" y="376" type="curve" smooth="yes"/>
      <point x="127" y="376" type="line"/>
    </contour>
  </outline>
</glyph>
<glyph name="D" format="1">
  <advance width="606"/>
  <unicode hex="0044"/>
  <outline>
    <contour>
      <point x="12" y="-1" type="line"/>
      <point x="51" y="-10"/>
      <point x="111" y="-15"/>
      <point x="145" y="-15" type="curve" smooth="yes"/>
      <point x="398" y="-15"/>
      <point x="571" y="139"/>
      <point x="571" y="391" type="curve" smooth="yes"/>
      <point x="571" y="554"/>
      <point x="461" y="678"/>
      <point x="157" y="680" type="curve"/>
    </contour>
    <contour>
      <point x="185" y="646" type="line"/>
      <point x="232" y="645"/>
      <point x="329" y="635"/>
      <point x="406" y="595" type="curve" smooth="yes"/>
      <point x="492" y="550"/>
      <point x="536" y="480"/>
      <point x="536" y="384" type="curve" smooth="yes"/>
      <point x="536" y="241"/>
      <point x="466" y="125"/>
      <point x="369" y="70" type="curve" smooth="yes"/>
      <point x="295" y="29"/>
      <point x="209" y="20"/>
      <point x="153" y="20" type="curve" smooth="yes"/>
      <point x="111" y="20"/>
      <point x="74" y="23"/>
      <point x="53" y="27" type="curve"/>
    </contour>
  </outline>
</glyph>
<glyph name="F" format="1">
  <advance width="495"/>
  <unicode hex="0046"/>
  <outline>
    <contour>
      <point x="572" y="644" type="line"/>
      <point x="588" y="681" type="line"/>
      <point x="152" y="681" type="line"/>
      <point x="8" y="2" type="line"/>
      <point x="46" y="9" type="line"/>
      <point x="114" y="327" type="line"/>
      <point x="453" y="327" type="line"/>
      <point x="468" y="365" type="line"/>
      <point x="122" y="365" type="line"/>
      <point x="181" y="644" type="line"/>
    </contour>
  </outline>
</glyph>
<glyph name="G" format="1">
  <advance width="734"/>
  <unicode hex="0047"/>
  <outline>
    <contour>
      <point x="658" y="237"/>
      <point x="670" y="233"/>
      <point x="678" y="231" type="curve"/>
      <point x="685" y="267" type="line"/>
      <point x="655" y="273"/>
      <point x="617" y="277"/>
      <point x="580" y="277" type="curve" smooth="yes"/>
      <point x="525" y="277"/>
      <point x="466" y="269"/>
      <point x="417" y="256" type="curve"/>
      <point x="409" y="219" type="line"/>
      <point x="452" y="235"/>
      <point x="512" y="243"/>
      <point x="570" y="243" type="curve" smooth="yes"/>
      <point x="576" y="243"/>
      <point x="590" y="243"/>
      <point x="611" y="241" type="curve"/>
      <point x="549" y="110"/>
      <point x="443" y="33"/>
      <point x="307" y="33" type="curve" smooth="yes"/>
      <point x="167" y="33"/>
      <point x="105" y="139"/>
      <point x="105" y="260" type="curve" smooth="yes"/>
      <point x="105" y="447"/>
      <point x="268" y="648"/>
      <point x="457" y="648" type="curve" smooth="yes"/>
      <point x="584" y="648"/>
      <point x="653" y="584"/>
      <point x="660" y="482" type="curve"/>
      <point x="695" y="489" type="line"/>
      <point x="683" y="597"/>
      <point x="605" y="682"/>
      <point x="464" y="682" type="curve" smooth="yes"/>
      <point x="251" y="682"/>
      <point x="68" y="460"/>
      <point x="68" y="252" type="curve" smooth="yes"/>
      <point x="68" y="104"/>
      <point x="155" y="-2"/>
      <point x="299" y="-2" type="curve" smooth="yes"/>
      <point x="529" y="-2"/>
      <point x="617" y="178"/>
      <point x="643" y="238" type="curve"/>
    </contour>
  </outline>
</glyph>
<glyph name="I" format="1">
  <advance width="427"/>
  <unicode hex="0049"/>
  <outline>
    <contour>
      <point x="442" y="644" type="line"/>
      <point x="457" y="681" type="line"/>
      <point x="162" y="681" type="line"/>
      <point x="147" y="644" type="line"/>
      <point x="282" y="644" type="line"/>
      <point x="153" y="37" type="line"/>
      <point x="25" y="37" type="line"/>
      <point x="11" y="0" type="line"/>
      <point x="306" y="0" type="line"/>
      <point x="320" y="37" type="line"/>
      <point x="190" y="37" type="line"/>
      <point x="319" y="644" type="line"/>
    </contour>
  </outline>
</glyph>
<glyph name="K" format="1">
  <advance width="567"/>
  <unicode hex="004B"/>
  <outline>
    <contour>
      <point x="469" y="32" type="line"/>
      <point x="134" y="336" type="line"/>
      <point x="574" y="649" type="line"/>
      <point x="558" y="675" type="line"/>
      <point x="126" y="368" type="line"/>
      <point x="192" y="679" type="line"/>
      <point x="155" y="672" type="line"/>
      <point x="13" y="2" type="line"/>
      <point x="49" y="9" type="line"/>
      <point x="112" y="304" type="line"/>
      <point x="443" y="4" type="line"/>
    </contour>
  </outline>
</glyph>
<glyph name="V" format="1">
  <advance width="530"/>
  <unicode hex="0056"/>
  <outline>
    <contour>
      <point x="205" y="46" type="line"/>
      <point x="137" y="677" type="line"/>
      <point x="100" y="662" type="line"/>
      <point x="172" y="1" type="line"/>
      <point x="224" y="10" type="line"/>
      <point x="610" y="663" type="line"/>
      <point x="577" y="677" type="line"/>
    </contour>
  </outline>
</glyph>
<glyph name="W" format="1">
  <advance width="868"/>
  <unicode hex="0057"/>
  <outline>
    <contour>
      <point x="957" y="678" type="line"/>
      <point x="914" y="670" type="line"/>
      <point x="571" y="48" type="line"/>
      <point x="548" y="680" type="line"/>
      <point x="501" y="671" type="line"/>
      <point x="186" y="55" type="line"/>
      <point x="136" y="680" type="line"/>
      <point x="100" y="673" type="line"/>
      <point x="155" y="1" type="line"/>
      <point x="198" y="10" type="line"/>
      <point x="514" y="626" type="line"/>
      <point x="537" y="1" type="line"/>
      <point x="588" y="10" type="line"/>
    </contour>
  </outline>
</glyph>
<glyph name="Y" format="1">
  <advance width="618"/>
  <unicode hex="0059"/>
  <outline>
    <contour>
      <point x="318" y="243" type="line"/>
      <point x="156" y="677" type="line"/>
      <point x="117" y="677" type="line"/>
      <point x="290" y="210" type="line"/>
      <point x="123" y="0" type="line"/>
      <point x="162" y="0" type="line"/>
      <point x="707" y="677" type="line"/>
      <point x="667" y="677" type="line"/>
    </contour>
  </outline>
</glyph>
<glyph name="Z" format="1">
  <advance width="611"/>
  <unicode hex="005A"/>
  <outline>
    <contour>
      <point x="17" y="0" type="line"/>
      <point x="494" y="0" type="line"/>
      <point x="510" y="42" type="line"/>
      <point x="53" y="42" type="line"/>
      <point x="647" y="637" type="line"/>
      <point x="636" y="681" type="line"/>
      <point x="181" y="681" type="line"/>
      <point x="163" y="639" type="line"/>
      <point x="598" y="639" type="line"/>
      <point x="6" y="44" type="line"/>
    </contour>
  </outline>
</glyph>
<glyph name="underscore" format="1">
  <advance width="466"/>
  <unicode hex="005F"/>
  <outline>
    <contour>
      <point x="406" y="-56" type="line"/>
      <point x="420" y="-21" type="line"/>
      <point x="-68" y="-21" type="line"/>
      <point x="-82" y="-56" type="line"/>
    </contour>
  </outline>
</glyph>
<glyph name="g" format="1">
  <advance width="512"/>
  <unicode hex="0067"/>
  <outline>
    <contour>
      <point x="507" y="506" type="line"/>
      <point x="468" y="500" type="line"/>
      <point x="459" y="459" type="line"/>
      <point x="428" y="479"/>
      <point x="387" y="501"/>
      <point x="341" y="501" type="curve" smooth="yes"/>
      <point x="169" y="501"/>
      <point x="42" y="323"/>
      <point x="42" y="175" type="curve" smooth="yes"/>
      <point x="42" y="72"/>
      <point x="100" y="0"/>
      <point x="194" y="0" type="curve" smooth="yes"/>
      <point x="251" y="0"/>
      <point x="319" y="35"/>
      <point x="374" y="103" type="curve"/>
      <point x="352" y="8" type="line" smooth="yes"/>
      <point x="341" y="-40"/>
      <point x="301" y="-155"/>
      <point x="156" y="-155" type="curve" smooth="yes"/>
      <point x="115" y="-155"/>
      <point x="75" y="-149"/>
      <point x="46" y="-144" type="curve"/>
      <point x="31" y="-181" type="line"/>
      <point x="62" y="-187"/>
      <point x="103" y="-193"/>
      <point x="147" y="-193" type="curve" smooth="yes"/>
      <point x="271" y="-193"/>
      <point x="360" y="-121"/>
      <point x="390" y="9" type="curve" smooth="yes"/>
    </contour>
    <contour>
      <point x="415" y="269" type="line" smooth="yes"/>
      <point x="377" y="92"/>
      <point x="273" y="34"/>
      <point x="196" y="34" type="curve" smooth="yes"/>
      <point x="105" y="34"/>
      <point x="76" y="111"/>
      <point x="76" y="182" type="curve" smooth="yes"/>
      <point x="76" y="321"/>
      <point x="196" y="465"/>
      <point x="335" y="465" type="curve" smooth="yes"/>
      <point x="379" y="465"/>
      <point x="425" y="445"/>
      <point x="448" y="425" type="curve"/>
    </contour>
  </outline>
</glyph>
<glyph name="h" format="1">
  <advance width="494"/>
  <unicode hex="0068"/>
  <outline>
    <contour>
      <point x="198" y="698" type="line"/>
      <point x="159" y="689" type="line"/>
      <point x="13" y="2" type="line"/>
      <point x="51" y="9" type="line"/>
      <point x="91" y="194" type="line" smooth="yes"/>
      <point x="98" y="227"/>
      <point x="109" y="264"/>
      <point x="128" y="291" type="curve" smooth="yes"/>
      <point x="154" y="329"/>
      <point x="273" y="470"/>
      <point x="366" y="470" type="curve" smooth="yes"/>
      <point x="405" y="470"/>
      <point x="422" y="435"/>
      <point x="422" y="369" type="curve" smooth="yes"/>
      <point x="422" y="296"/>
      <point x="369" y="35"/>
      <point x="360" y="2" type="curve"/>
      <point x="396" y="9" type="line"/>
      <point x="415" y="81"/>
      <point x="458" y="301"/>
      <point x="458" y="377" type="curve" smooth="yes"/>
      <point x="458" y="462"/>
      <point x="433" y="505"/>
      <point x="374" y="505" type="curve" smooth="yes"/>
      <point x="291" y="505"/>
      <point x="171" y="397"/>
      <point x="116" y="315" type="curve"/>
    </contour>
  </outline>
</glyph>
<glyph name="i" format="1">
  <advance width="183"/>
  <unicode hex="0069"/>
  <outline>
    <contour>
      <point x="120" y="493" type="line"/>
      <point x="16" y="2" type="line"/>
      <point x="58" y="9" type="line"/>
      <point x="162" y="498" type="line"/>
    </contour>
    <contour>
      <point x="207" y="695" type="line"/>
      <point x="162" y="687" type="line"/>
      <point x="149" y="624" type="line"/>
      <point x="190" y="631" type="line"/>
    </contour>
  </outline>
</glyph>
<glyph name="l" format="1">
  <advance width="216"/>
  <unicode hex="006C"/>
  <outline>
    <contour>
      <point x="182" y="689" type="line"/>
      <point x="36" y="2" type="line"/>
      <point x="75" y="9" type="line"/>
      <point x="222" y="698" type="line"/>
    </contour>
  </outline>
</glyph>
<glyph name="m" format="1">
  <advance width="807"/>
  <unicode hex="006D"/>
  <outline>
    <contour>
      <point x="224" y="430"/>
      <point x="313" y="481"/>
      <point x="360" y="481" type="curve" smooth="yes"/>
      <point x="391" y="481"/>
      <point x="430" y="472"/>
      <point x="430" y="401" type="curve" smooth="yes"/>
      <point x="430" y="384"/>
      <point x="427" y="362"/>
      <point x="422" y="336" type="curve" smooth="yes"/>
      <point x="351" y="2" type="line"/>
      <point x="390" y="9" type="line"/>
      <point x="447" y="274" type="line" smooth="yes"/>
      <point x="474" y="399"/>
      <point x="612" y="479"/>
      <point x="673" y="479" type="curve" smooth="yes"/>
      <point x="705" y="479"/>
      <point x="743" y="465"/>
      <point x="743" y="393" type="curve" smooth="yes"/>
      <point x="743" y="375"/>
      <point x="741" y="352"/>
      <point x="735" y="326" type="curve" smooth="yes"/>
      <point x="666" y="2" type="line"/>
      <point x="705" y="9" type="line"/>
      <point x="773" y="329" type="line" smooth="yes"/>
      <point x="779" y="357"/>
      <point x="782" y="380"/>
      <point x="782" y="400" type="curve" smooth="yes"/>
      <point x="782" y="490"/>
      <point x="728" y="511"/>
      <point x="680" y="511" type="curve" smooth="yes"/>
      <point x="617" y="511"/>
      <point x="524" y="457"/>
      <point x="466" y="383" type="curve"/>
      <point x="464" y="489"/>
      <point x="429" y="511"/>
      <point x="366" y="511" type="curve" smooth="yes"/>
      <point x="287" y="511"/>
      <point x="176" y="418"/>
      <point x="120" y="344" type="curve"/>
      <point x="151" y="490" type="line"/>
      <point x="112" y="482" type="line"/>
      <point x="10" y="2" type="line"/>
      <point x="48" y="9" type="line"/>
      <point x="101" y="255" type="line"/>
      <point x="101" y="255"/>
      <point x="110" y="294"/>
      <point x="127" y="313" type="curve"/>
    </contour>
  </outline>
</glyph>
<glyph name="q" format="1">
  <advance width="513"/>
  <unicode hex="0071"/>
  <outline>
    <contour>
      <point x="296" y="-202" type="line"/>
      <point x="335" y="-195" type="line"/>
      <point x="507" y="508" type="line"/>
      <point x="472" y="508" type="line"/>
      <point x="467" y="487" type="line"/>
      <point x="431" y="493"/>
      <point x="402" y="496"/>
      <point x="380" y="496" type="curve" smooth="yes"/>
      <point x="191" y="496"/>
      <point x="35" y="332"/>
      <point x="35" y="156" type="curve" smooth="yes"/>
      <point x="35" y="60"/>
      <point x="98" y="-9"/>
      <point x="198" y="-9" type="curve" smooth="yes"/>
      <point x="267" y="-9"/>
      <point x="315" y="6"/>
      <point x="359" y="56" type="curve"/>
    </contour>
    <contour>
      <point x="386" y="159" type="line" smooth="yes"/>
      <point x="364" y="72"/>
      <point x="295" y="23"/>
      <point x="205" y="23" type="curve" smooth="yes"/>
      <point x="121" y="23"/>
      <point x="68" y="77"/>
      <point x="68" y="160" type="curve" smooth="yes"/>
      <point x="68" y="327"/>
      <point x="225" y="463"/>
      <point x="373" y="463" type="curve" smooth="yes"/>
      <point x="395" y="463"/>
      <point x="431" y="459"/>
      <point x="459" y="454" type="curve"/>
    </contour>
  </outline>
</glyph>
<glyph name="s" format="1">
  <advance width="450"/>
  <unicode hex="0073"/>
  <outline>
    <contour>
      <point x="432" y="394" type="line"/>
      <point x="436" y="410"/>
      <point x="436" y="417"/>
      <point x="436" y="424" type="curve" smooth="yes"/>
      <point x="436" y="490"/>
      <point x="357" y="505"/>
      <point x="307" y="505" type="curve" smooth="yes"/>
      <point x="237" y="505"/>
      <point x="105" y="481"/>
      <point x="105" y="360" type="curve" smooth="yes"/>
      <point x="105" y="297"/>
      <point x="161" y="274"/>
      <point x="218" y="254" type="curve" smooth="yes"/>
      <point x="280" y="233"/>
      <point x="344" y="217"/>
      <point x="344" y="160" type="curve" smooth="yes"/>
      <point x="344" y="84"/>
      <point x="262" y="31"/>
      <point x="185" y="31" type="curve" smooth="yes"/>
      <point x="126" y="31"/>
      <point x="71" y="59"/>
      <point x="60" y="112" type="curve"/>
      <point x="24" y="107" type="line"/>
      <point x="33" y="35"/>
      <point x="99" y="0"/>
      <point x="179" y="0" type="curve" smooth="yes"/>
      <point x="234" y="0"/>
      <point x="383" y="35"/>
      <point x="383" y="168" type="curve" smooth="yes"/>
      <point x="383" y="225"/>
      <point x="337" y="258"/>
      <point x="249" y="284" type="curve" smooth="yes"/>
      <point x="179" y="304"/>
      <point x="142" y="327"/>
      <point x="142" y="365" type="curve" smooth="yes"/>
      <point x="142" y="424"/>
      <point x="190" y="475"/>
      <point x="300" y="475" type="curve" smooth="yes"/>
      <point x="347" y="475"/>
      <point x="402" y="459"/>
      <point x="402" y="408" type="curve" smooth="yes"/>
      <point x="402" y="402"/>
      <point x="402" y="395"/>
      <point x="400" y="386" type="curve"/>
    </contour>
  </outline>
</glyph>
<glyph name="t" format="1">
  <advance width="363"/>
  <unicode hex="0074"/>
  <outline>
    <contour>
      <point x="399" y="502" type="line"/>
      <point x="256" y="502" type="line"/>
      <point x="293" y="676" type="line"/>
      <point x="253" y="669" type="line"/>
      <point x="217" y="502" type="line"/>
      <point x="73" y="502" type="line"/>
      <point x="65" y="465" type="line"/>
      <point x="209" y="465" type="line"/>
      <point x="111" y="2" type="line"/>
      <point x="151" y="9" type="line"/>
      <point x="248" y="465" type="line"/>
      <point x="391" y="465" type="line"/>
    </contour>
  </outline>
</glyph>
<glyph name="braceright" format="1">
  <advance width="364"/>
  <unicode hex="007D"/>
  <outline>
    <contour>
      <point x="316" y="356" type="line"/>
      <point x="281" y="369"/>
      <point x="259" y="401"/>
      <point x="259" y="439" type="curve" smooth="yes"/>
      <point x="259" y="445"/>
      <point x="259" y="453"/>
      <point x="261" y="460" type="curve"/>
      <point x="308" y="679" type="line" smooth="yes"/>
      <point x="310" y="690"/>
      <point x="311" y="700"/>
      <point x="311" y="710" type="curve" smooth="yes"/>
      <point x="311" y="792"/>
      <point x="233" y="819"/>
      <point x="179" y="823" type="curve"/>
      <point x="170" y="787" type="line"/>
      <point x="241" y="778"/>
      <point x="274" y="748"/>
      <point x="274" y="702" type="curve" smooth="yes"/>
      <point x="274" y="695"/>
      <point x="274" y="687"/>
      <point x="272" y="679" type="curve" smooth="yes"/>
      <point x="227" y="468" type="line" smooth="yes"/>
      <point x="225" y="457"/>
      <point x="223" y="447"/>
      <point x="223" y="437" type="curve" smooth="yes"/>
      <point x="223" y="395"/>
      <point x="242" y="361"/>
      <point x="268" y="339" type="curve"/>
      <point x="200" y="293"/>
      <point x="179" y="241"/>
      <point x="172" y="210" type="curve" smooth="yes"/>
      <point x="130" y="14" type="line" smooth="yes"/>
      <point x="116" y="-50"/>
      <point x="57" y="-89"/>
      <point x="-14" y="-94" type="curve"/>
      <point x="-24" y="-130" type="line"/>
      <point x="39" y="-125"/>
      <point x="144" y="-88"/>
      <point x="166" y="14" type="curve" smooth="yes"/>
      <point x="208" y="211" type="line" smooth="yes"/>
      <point x="219" y="265"/>
      <point x="259" y="304"/>
      <point x="309" y="322" type="curve"/>
    </contour>
  </outline>
</glyph>
<glyph name="sterling" format="1">
  <advance width="754"/>
  <unicode hex="00A3"/>
  <outline>
    <contour>
      <point x="633" y="140" type="line"/>
      <point x="598" y="64"/>
      <point x="556" y="25"/>
      <point x="490" y="25" type="curve" smooth="yes"/>
      <point x="446" y="25"/>
      <point x="402" y="47"/>
      <point x="361" y="77" type="curve" smooth="yes"/>
      <point x="336" y="95"/>
      <point x="314" y="109"/>
      <point x="277" y="109" type="curve" smooth="yes"/>
      <point x="260" y="109"/>
      <point x="237" y="105"/>
      <point x="200" y="93" type="curve"/>
      <point x="240" y="153"/>
      <point x="255" y="191"/>
      <point x="255" y="259" type="curve" smooth="yes"/>
      <point x="255" y="280"/>
      <point x="254" y="307"/>
      <point x="252" y="342" type="curve"/>
      <point x="506" y="342" type="line"/>
      <point x="520" y="376" type="line"/>
      <point x="252" y="376" type="line"/>
      <point x="256" y="597"/>
      <point x="347" y="700"/>
      <point x="503" y="700" type="curve" smooth="yes"/>
      <point x="618" y="700"/>
      <point x="661" y="639"/>
      <point x="661" y="547" type="curve" smooth="yes"/>
      <point x="661" y="542"/>
      <point x="661" y="538"/>
      <point x="661" y="534" type="curve"/>
      <point x="697" y="538" type="line"/>
      <point x="698" y="545"/>
      <point x="698" y="553"/>
      <point x="698" y="561" type="curve" smooth="yes"/>
      <point x="698" y="634"/>
      <point x="665" y="735"/>
      <point x="516" y="735" type="curve" smooth="yes"/>
      <point x="329" y="735"/>
      <point x="218" y="606"/>
      <point x="218" y="376" type="curve"/>
      <point x="107" y="376" type="line"/>
      <point x="93" y="342" type="line"/>
      <point x="220" y="342" type="line"/>
      <point x="222" y="316"/>
      <point x="223" y="294"/>
      <point x="223" y="276" type="curve" smooth="yes"/>
      <point x="223" y="159"/>
      <point x="178" y="99"/>
      <point x="90" y="30" type="curve"/>
      <point x="108" y="5" type="line"/>
      <point x="176" y="57"/>
      <point x="244" y="74"/>
      <point x="269" y="74" type="curve" smooth="yes"/>
      <point x="296" y="74"/>
      <point x="315" y="66"/>
      <point x="334" y="50" type="curve" smooth="yes"/>
      <point x="379" y="13"/>
      <point x="434" y="-10"/>
      <point x="484" y="-10" type="curve" smooth="yes"/>
      <point x="526" y="-10"/>
      <point x="618" y="15"/>
      <point x="667" y="134" type="curve"/>
    </contour>
  </outline>
</glyph>
<glyph name="currency" format="1">
  <advance width="490"/>
  <unicode hex="00A4"/>
  <outline>
    <contour>
      <point x="406" y="306"/>
      <point x="401" y="329"/>
      <point x="389" y="350" type="curve"/>
      <point x="479" y="425" type="line"/>
      <point x="461" y="448" type="line"/>
      <point x="371" y="373" type="line"/>
      <point x="345" y="395"/>
      <point x="315" y="406"/>
      <point x="281" y="406" type="curve" smooth="yes"/>
      <point x="248" y="406"/>
      <point x="212" y="395"/>
      <point x="177" y="373" type="curve"/>
      <point x="118" y="448" type="line"/>
      <point x="90" y="425" type="line"/>
      <point x="148" y="350" type="line"/>
      <point x="112" y="310"/>
      <point x="89" y="265"/>
      <point x="89" y="221" type="curve" smooth="yes"/>
      <point x="89" y="198"/>
      <point x="94" y="175"/>
      <point x="105" y="154" type="curve"/>
      <point x="17" y="81" type="line"/>
      <point x="35" y="58" type="line"/>
      <point x="122" y="130" type="line"/>
      <point x="147" y="108"/>
      <point x="180" y="95"/>
      <point x="215" y="95" type="curve" smooth="yes"/>
      <point x="249" y="95"/>
      <point x="286" y="108"/>
      <point x="321" y="130" type="curve"/>
      <point x="378" y="59" type="line"/>
      <point x="406" y="82" type="line"/>
      <point x="349" y="154" type="line"/>
      <point x="383" y="191"/>
      <point x="406" y="235"/>
      <point x="406" y="283" type="curve" smooth="yes"/>
    </contour>
    <contour>
      <point x="161" y="127"/>
      <point x="121" y="168"/>
      <point x="121" y="224" type="curve" smooth="yes"/>
      <point x="121" y="305"/>
      <point x="197" y="374"/>
      <point x="274" y="374" type="curve" smooth="yes"/>
      <point x="334" y="374"/>
      <point x="374" y="334"/>
      <point x="374" y="278" type="curve" smooth="yes"/>
      <point x="374" y="197"/>
      <point x="298" y="127"/>
      <point x="221" y="127" type="curve" smooth="yes"/>
    </contour>
  </outline>
</glyph>
<glyph name="copyright" format="1">
  <advance width="566"/>
  <unicode hex="00A9"/>
  <outline>
    <contour>
      <point x="422" y="246"/>
      <point x="560" y="375"/>
      <point x="560" y="519" type="curve" smooth="yes"/>
      <point x="560" y="621"/>
      <point x="488" y="698"/>
      <point x="382" y="698" type="curve" smooth="yes"/>
      <point x="244" y="698"/>
      <point x="108" y="568"/>
      <point x="108" y="423" type="curve" smooth="yes"/>
      <point x="108" y="322"/>
      <point x="180" y="246"/>
      <point x="286" y="246" type="curve" smooth="yes"/>
    </contour>
    <contour>
      <point x="469" y="671"/>
      <point x="532" y="604"/>
      <point x="532" y="514" type="curve" smooth="yes"/>
      <point x="532" y="384"/>
      <point x="410" y="273"/>
      <point x="292" y="273" type="curve" smooth="yes"/>
      <point x="199" y="273"/>
      <point x="135" y="339"/>
      <point x="135" y="429" type="curve" smooth="yes"/>
      <point x="135" y="557"/>
      <point x="256" y="671"/>
      <point x="376" y="671" type="curve" smooth="yes"/>
    </contour>
    <contour>
      <point x="353" y="362"/>
      <point x="405" y="387"/>
      <point x="436" y="435" type="curve"/>
      <point x="411" y="444" type="line"/>
      <point x="388" y="408"/>
      <point x="357" y="390"/>
      <point x="308" y="390" type="curve" smooth="yes"/>
      <point x="272" y="390"/>
      <point x="239" y="413"/>
      <point x="239" y="453" type="curve" smooth="yes"/>
      <point x="239" y="515"/>
      <point x="292" y="568"/>
      <point x="357" y="568" type="curve" smooth="yes"/>
      <point x="377" y="568"/>
      <point x="401" y="556"/>
      <point x="415" y="539" type="curve"/>
      <point x="439" y="557" type="line"/>
      <point x="419" y="585"/>
      <point x="388" y="595"/>
      <point x="363" y="595" type="curve" smooth="yes"/>
      <point x="286" y="595"/>
      <point x="210" y="537"/>
      <point x="210" y="450" type="curve" smooth="yes"/>
      <point x="210" y="401"/>
      <point x="248" y="362"/>
      <point x="302" y="362" type="curve" smooth="yes"/>
    </contour>
  </outline>
</glyph>
<glyph name="uni00AD" format="1">
  <advance width="432"/>
  <unicode hex="00AD"/>
  <outline>
    <contour>
      <point x="368" y="272" type="line"/>
      <point x="86" y="272" type="line"/>
      <point x="72" y="236" type="line"/>
      <point x="354" y="236" type="line"/>
    </contour>
  </outline>
</glyph>
<glyph name="macron" format="1">
  <advance width="490"/>
  <unicode hex="00AF"/>
  <outline>
    <contour>
      <point x="441" y="611" type="line"/>
      <point x="456" y="647" type="line"/>
      <point x="216" y="647" type="line"/>
      <point x="200" y="611" type="line"/>
    </contour>
  </outline>
</glyph>
<glyph name="paragraph" format="1">
  <advance width="549"/>
  <unicode hex="00B6"/>
  <outline>
    <contour>
      <point x="456" y="756"/>
      <point x="475" y="761"/>
      <point x="476" y="761" type="curve"/>
      <point x="477" y="795" type="line"/>
      <point x="322" y="766"/>
      <point x="115" y="671"/>
      <point x="115" y="493" type="curve" smooth="yes"/>
      <point x="115" y="376"/>
      <point x="242" y="363"/>
      <point x="329" y="363" type="curve"/>
      <point x="289" y="234"/>
      <point x="237" y="77"/>
      <point x="172" y="-81" type="curve"/>
      <point x="208" y="-78" type="line"/>
      <point x="390" y="366"/>
      <point x="448" y="688"/>
      <point x="456" y="756" type="curve"/>
    </contour>
    <contour>
      <point x="537" y="744" type="line"/>
      <point x="524" y="681"/>
      <point x="466" y="350"/>
      <point x="288" y="-82" type="curve"/>
      <point x="326" y="-78" type="line"/>
      <point x="504" y="361"/>
      <point x="565" y="685"/>
      <point x="573" y="748" type="curve"/>
    </contour>
  </outline>
</glyph>
<glyph name="periodcentered" format="1">
  <advance width="490"/>
  <unicode hex="00B7"/>
  <outline>
    <contour>
      <point x="287" y="290" type="line"/>
      <point x="230" y="281" type="line"/>
      <point x="211" y="217" type="line"/>
      <point x="266" y="225" type="line"/>
    </contour>
  </outline>
</glyph>
<glyph name="onesuperior" format="1">
  <advance width="169"/>
  <unicode hex="00B9"/>
  <outline>
    <contour>
      <point x="61" y="473" type="line"/>
      <point x="207" y="473" type="line"/>
      <point x="219" y="500" type="line"/>
      <point x="163" y="500" type="line"/>
      <point x="244" y="857" type="line"/>
      <point x="114" y="759" type="line"/>
      <point x="126" y="738" type="line"/>
      <point x="203" y="796" type="line"/>
      <point x="136" y="500" type="line"/>
      <point x="71" y="500" type="line"/>
    </contour>
  </outline>
</glyph>
<glyph name="questiondown" format="1">
  <advance width="491"/>
  <unicode hex="00BF"/>
  <outline>
    <contour>
      <point x="357" y="649" type="line"/>
      <point x="396" y="656" type="line"/>
      <point x="416" y="720" type="line"/>
      <point x="377" y="713" type="line"/>
    </contour>
    <contour>
      <point x="354" y="521" type="line"/>
      <point x="344" y="552" type="line"/>
      <point x="155" y="411" type="line" smooth="yes"/>
      <point x="85" y="359"/>
      <point x="-17" y="284"/>
      <point x="-16" y="157" type="curve" smooth="yes"/>
      <point x="-16" y="62"/>
      <point x="53" y="0"/>
      <point x="166" y="0" type="curve" smooth="yes"/>
      <point x="266" y="0"/>
      <point x="343" y="70"/>
      <point x="377" y="106" type="curve"/>
      <point x="357" y="130" type="line"/>
      <point x="331" y="101"/>
      <point x="262" y="36"/>
      <point x="173" y="36" type="curve" smooth="yes"/>
      <point x="59" y="36"/>
      <point x="20" y="97"/>
      <point x="20" y="164" type="curve" smooth="yes"/>
      <point x="20" y="267"/>
      <point x="103" y="332"/>
      <point x="168" y="381" type="curve" smooth="yes"/>
    </contour>
  </outline>
</glyph>
<glyph name="Atilde" format="1">
  <advance width="613"/>
  <unicode hex="00C3"/>
  <outline>
    <contour>
      <point x="444" y="679" type="line"/>
      <point x="382" y="668" type="line"/>
      <point x="133" y="241" type="line"/>
      <point x="57" y="227" type="line"/>
      <point x="57" y="191" type="line"/>
      <point x="107" y="201" type="line"/>
      <point x="3" y="22" type="line"/>
      <point x="32" y="4" type="line"/>
      <point x="153" y="211" type="line"/>
      <point x="453" y="271" type="line"/>
      <point x="484" y="7" type="line"/>
      <point x="519" y="29" type="line"/>
    </contour>
    <contour>
      <point x="178" y="251" type="line"/>
      <point x="409" y="646" type="line"/>
      <point x="448" y="304" type="line"/>
    </contour>
    <contour>
      <point x="439" y="845"/>
      <point x="424" y="876"/>
      <point x="382" y="876" type="curve" smooth="yes"/>
      <point x="330" y="876"/>
      <point x="287" y="825"/>
      <point x="262" y="781" type="curve"/>
      <point x="289" y="771" type="line"/>
      <point x="306" y="802"/>
      <point x="341" y="844"/>
      <point x="375" y="844" type="curve" smooth="yes"/>
      <point x="395" y="844"/>
      <point x="405" y="838"/>
      <point x="423" y="801" type="curve" smooth="yes"/>
      <point x="436" y="774"/>
      <point x="452" y="743"/>
      <point x="493" y="743" type="curve" smooth="yes"/>
      <point x="537" y="743"/>
      <point x="590" y="789"/>
      <point x="619" y="845" type="curve"/>
      <point x="590" y="855" type="line"/>
      <point x="572" y="821"/>
      <point x="538" y="774"/>
      <point x="500" y="774" type="curve" smooth="yes"/>
      <point x="479" y="774"/>
      <point x="470" y="781"/>
      <point x="452" y="820" type="curve"/>
    </contour>
  </outline>
</glyph>
<glyph name="Aring" format="1">
  <advance width="613"/>
  <unicode hex="00C5"/>
  <outline>
    <contour>
      <point x="474" y="743"/>
      <point x="567" y="790"/>
      <point x="567" y="870" type="curve" smooth="yes"/>
      <point x="567" y="911"/>
      <point x="536" y="948"/>
      <point x="478" y="948" type="curve" smooth="yes"/>
      <point x="400" y="948"/>
      <point x="326" y="886"/>
      <point x="326" y="819" type="curve" smooth="yes"/>
      <point x="326" y="776"/>
      <point x="359" y="743"/>
      <point x="414" y="743" type="curve" smooth="yes"/>
    </contour>
    <contour>
      <point x="512" y="923"/>
      <point x="540" y="898"/>
      <point x="540" y="864" type="curve" smooth="yes"/>
      <point x="540" y="812"/>
      <point x="475" y="767"/>
      <point x="422" y="767" type="curve" smooth="yes"/>
      <point x="379" y="767"/>
      <point x="351" y="790"/>
      <point x="351" y="823" type="curve" smooth="yes"/>
      <point x="351" y="884"/>
      <point x="427" y="923"/>
      <point x="470" y="923" type="curve" smooth="yes"/>
    </contour>
    <contour>
      <point x="444" y="679" type="line"/>
      <point x="382" y="668" type="line"/>
      <point x="133" y="241" type="line"/>
      <point x="57" y="227" type="line"/>
      <point x="57" y="191" type="line"/>
      <point x="107" y="201" type="line"/>
      <point x="3" y="22" type="line"/>
      <point x="32" y="4" type="line"/>
      <point x="153" y="211" type="line"/>
      <point x="453" y="271" type="line"/>
      <point x="484" y="7" type="line"/>
      <point x="519" y="29" type="line"/>
    </contour>
    <contour>
      <point x="178" y="251" type="line"/>
      <point x="409" y="646" type="line"/>
      <point x="448" y="304" type="line"/>
    </contour>
  </outline>
</glyph>
<glyph name="Ccedilla" format="1">
  <advance width="621"/>
  <unicode hex="00C7"/>
  <outline>
    <contour>
      <point x="230" y="-184"/>
      <point x="219" y="-175"/>
      <point x="209" y="-166" type="curve"/>
      <point x="190" y="-182" type="line"/>
      <point x="201" y="-198"/>
      <point x="222" y="-207"/>
      <point x="246" y="-207" type="curve" smooth="yes"/>
      <point x="298" y="-207"/>
      <point x="348" y="-159"/>
      <point x="348" y="-105" type="curve" smooth="yes"/>
      <point x="348" y="-65"/>
      <point x="318" y="-40"/>
      <point x="273" y="-40" type="curve" smooth="yes"/>
      <point x="259" y="-40" type="line"/>
      <point x="267" y="-1" type="line"/>
      <point x="372" y="-1"/>
      <point x="479" y="47"/>
      <point x="546" y="124" type="curve"/>
      <point x="528" y="147" type="line"/>
      <point x="456" y="68"/>
      <point x="385" y="33"/>
      <point x="286" y="33" type="curve" smooth="yes"/>
      <point x="167" y="33"/>
      <point x="87" y="120"/>
      <point x="87" y="235" type="curve" smooth="yes"/>
      <point x="87" y="367"/>
      <point x="253" y="647"/>
      <point x="423" y="647" type="curve" smooth="yes"/>
      <point x="510" y="647"/>
      <point x="553" y="609"/>
      <point x="575" y="575" type="curve"/>
      <point x="570" y="555" type="line"/>
      <point x="597" y="555" type="line"/>
      <point x="619" y="657" type="line"/>
      <point x="592" y="657" type="line"/>
      <point x="585" y="623" type="line"/>
      <point x="543" y="661"/>
      <point x="490" y="681"/>
      <point x="436" y="681" type="curve" smooth="yes"/>
      <point x="232" y="681"/>
      <point x="52" y="384"/>
      <point x="52" y="228" type="curve" smooth="yes"/>
      <point x="52" y="105"/>
      <point x="134" y="13"/>
      <point x="255" y="-1" type="curve"/>
      <point x="226" y="-52" type="line"/>
      <point x="243" y="-71" type="line"/>
      <point x="252" y="-67"/>
      <point x="265" y="-63"/>
      <point x="276" y="-63" type="curve" smooth="yes"/>
      <point x="305" y="-63"/>
      <point x="322" y="-83"/>
      <point x="322" y="-110" type="curve" smooth="yes"/>
      <point x="322" y="-150"/>
      <point x="288" y="-184"/>
      <point x="250" y="-184" type="curve" smooth="yes"/>
    </contour>
  </outline>
</glyph>
<glyph name="Eacute" format="1">
  <advance width="601"/>
  <unicode hex="00C9"/>
  <outline>
    <contour>
      <point x="322" y="784" type="line"/>
      <point x="343" y="760" type="line"/>
      <point x="515" y="864" type="line"/>
      <point x="484" y="896" type="line"/>
    </contour>
    <contour>
      <point x="57" y="37" type="line"/>
      <point x="121" y="336" type="line"/>
      <point x="502" y="336" type="line"/>
      <point x="521" y="373" type="line"/>
      <point x="129" y="373" type="line"/>
      <point x="186" y="644" type="line"/>
      <point x="614" y="644" type="line"/>
      <point x="630" y="681" type="line"/>
      <point x="157" y="681" type="line"/>
      <point x="13" y="0" type="line"/>
      <point x="475" y="0" type="line"/>
      <point x="497" y="37" type="line"/>
    </contour>
  </outline>
</glyph>
<glyph name="Idieresis" format="1">
  <advance width="427"/>
  <unicode hex="00CF"/>
  <outline>
    <contour>
      <point x="290" y="822" type="line"/>
      <point x="234" y="814" type="line"/>
      <point x="214" y="750" type="line"/>
      <point x="270" y="758" type="line"/>
    </contour>
    <contour>
      <point x="456" y="822" type="line"/>
      <point x="400" y="814" type="line"/>
      <point x="380" y="750" type="line"/>
      <point x="436" y="758" type="line"/>
    </contour>
    <contour>
      <point x="442" y="644" type="line"/>
      <point x="457" y="681" type="line"/>
      <point x="162" y="681" type="line"/>
      <point x="147" y="644" type="line"/>
      <point x="282" y="644" type="line"/>
      <point x="153" y="37" type="line"/>
      <point x="25" y="37" type="line"/>
      <point x="11" y="0" type="line"/>
      <point x="306" y="0" type="line"/>
      <point x="320" y="37" type="line"/>
      <point x="190" y="37" type="line"/>
      <point x="319" y="644" type="line"/>
    </contour>
  </outline>
</glyph>
<glyph name="Ntilde" format="1">
  <advance width="605"/>
  <unicode hex="00D1"/>
  <outline>
    <contour>
      <point x="600" y="672" type="line"/>
      <point x="467" y="45" type="line"/>
      <point x="203" y="680" type="line"/>
      <point x="154" y="666" type="line"/>
      <point x="14" y="3" type="line"/>
      <point x="50" y="11" type="line"/>
      <point x="182" y="631" type="line"/>
      <point x="440" y="1" type="line"/>
      <point x="494" y="12" type="line"/>
      <point x="636" y="679" type="line"/>
    </contour>
    <contour>
      <point x="429" y="845"/>
      <point x="414" y="876"/>
      <point x="372" y="876" type="curve" smooth="yes"/>
      <point x="320" y="876"/>
      <point x="277" y="825"/>
      <point x="252" y="781" type="curve"/>
      <point x="279" y="771" type="line"/>
      <point x="296" y="802"/>
      <point x="331" y="844"/>
      <point x="365" y="844" type="curve" smooth="yes"/>
      <point x="385" y="844"/>
      <point x="395" y="838"/>
      <point x="413" y="801" type="curve" smooth="yes"/>
      <point x="426" y="774"/>
      <point x="442" y="743"/>
      <point x="483" y="743" type="curve" smooth="yes"/>
      <point x="527" y="743"/>
      <point x="580" y="789"/>
      <point x="609" y="845" type="curve"/>
      <point x="580" y="855" type="line"/>
      <point x="562" y="821"/>
      <point x="528" y="774"/>
      <point x="490" y="774" type="curve" smooth="yes"/>
      <point x="469" y="774"/>
      <point x="460" y="781"/>
      <point x="442" y="820" type="curve"/>
    </contour>
  </outline>
</glyph>
<glyph name="Oacute" format="1">
  <advance width="650"/>
  <unicode hex="00D3"/>
  <outline>
    <contour>
      <point x="387" y="784" type="line"/>
      <point x="408" y="760" type="line"/>
      <point x="581" y="864" type="line"/>
      <point x="549" y="896" type="line"/>
    </contour>
    <contour>
      <point x="426" y="-2"/>
      <point x="630" y="217"/>
      <point x="630" y="452" type="curve" smooth="yes"/>
      <point x="630" y="584"/>
      <point x="559" y="682"/>
      <point x="441" y="682" type="curve" smooth="yes"/>
      <point x="267" y="682"/>
      <point x="64" y="465"/>
      <point x="64" y="229" type="curve" smooth="yes"/>
      <point x="64" y="98"/>
      <point x="133" y="-2"/>
      <point x="252" y="-2" type="curve" smooth="yes"/>
    </contour>
    <contour>
      <point x="536" y="649"/>
      <point x="594" y="553"/>
      <point x="594" y="438" type="curve" smooth="yes"/>
      <point x="594" y="227"/>
      <point x="406" y="31"/>
      <point x="259" y="31" type="curve" smooth="yes"/>
      <point x="158" y="31"/>
      <point x="98" y="117"/>
      <point x="98" y="233" type="curve" smooth="yes"/>
      <point x="98" y="456"/>
      <point x="286" y="649"/>
      <point x="430" y="649" type="curve" smooth="yes"/>
    </contour>
  </outline>
</glyph>
<glyph name="Oslash" format="1">
  <advance width="650"/>
  <unicode hex="00D8"/>
  <outline>
    <contour>
      <point x="636" y="721" type="line"/>
      <point x="610" y="738" type="line"/>
      <point x="545" y="651" type="line"/>
      <point x="512" y="673"/>
      <point x="477" y="683"/>
      <point x="442" y="683" type="curve" smooth="yes"/>
      <point x="265" y="683"/>
      <point x="64" y="473"/>
      <point x="64" y="228" type="curve" smooth="yes"/>
      <point x="64" y="171"/>
      <point x="77" y="119"/>
      <point x="103" y="77" type="curve"/>
      <point x="34" y="-13" type="line"/>
      <point x="58" y="-31" type="line"/>
      <point x="123" y="53" type="line"/>
      <point x="161" y="19"/>
      <point x="206" y="-1"/>
      <point x="252" y="-1" type="curve" smooth="yes"/>
      <point x="429" y="-1"/>
      <point x="631" y="221"/>
      <point x="631" y="459" type="curve" smooth="yes"/>
      <point x="631" y="527"/>
      <point x="612" y="590"/>
      <point x="568" y="633" type="curve"/>
    </contour>
    <contour>
      <point x="127" y="107" type="line"/>
      <point x="108" y="143"/>
      <point x="98" y="186"/>
      <point x="98" y="232" type="curve" smooth="yes"/>
      <point x="98" y="455"/>
      <point x="283" y="650"/>
      <point x="427" y="650" type="curve" smooth="yes"/>
      <point x="460" y="650"/>
      <point x="491" y="640"/>
      <point x="520" y="620" type="curve"/>
    </contour>
    <contour>
      <point x="215" y="32"/>
      <point x="177" y="49"/>
      <point x="145" y="82" type="curve"/>
      <point x="543" y="600" type="line"/>
      <point x="580" y="561"/>
      <point x="595" y="504"/>
      <point x="595" y="446" type="curve" smooth="yes"/>
      <point x="595" y="299"/>
      <point x="458" y="32"/>
      <point x="259" y="32" type="curve" smooth="yes"/>
    </contour>
  </outline>
</glyph>
<glyph name="Thorn" format="1">
  <advance width="496"/>
  <unicode hex="00DE"/>
  <outline>
    <contour>
      <point x="156" y="676" type="line"/>
      <point x="13" y="3" type="line"/>
      <point x="49" y="10" type="line"/>
      <point x="78" y="146" type="line"/>
      <point x="233" y="156"/>
      <point x="500" y="210"/>
      <point x="500" y="416" type="curve" smooth="yes"/>
      <point x="500" y="559"/>
      <point x="301" y="573"/>
      <point x="170" y="573" type="curve"/>
      <point x="194" y="683" type="line"/>
    </contour>
    <contour>
      <point x="162" y="535" type="line"/>
      <point x="340" y="535"/>
      <point x="462" y="503"/>
      <point x="462" y="408" type="curve" smooth="yes"/>
      <point x="462" y="272"/>
      <point x="293" y="193"/>
      <point x="87" y="187" type="curve"/>
    </contour>
  </outline>
</glyph>
<glyph name="atilde" format="1">
  <advance width="503"/>
  <unicode hex="00E3"/>
  <outline>
    <contour>
      <point x="351" y="681"/>
      <point x="336" y="712"/>
      <point x="294" y="712" type="curve" smooth="yes"/>
      <point x="242" y="712"/>
      <point x="199" y="661"/>
      <point x="174" y="617" type="curve"/>
      <point x="202" y="607" type="line"/>
      <point x="218" y="638"/>
      <point x="253" y="680"/>
      <point x="287" y="680" type="curve" smooth="yes"/>
      <point x="307" y="680"/>
      <point x="317" y="674"/>
      <point x="335" y="637" type="curve" smooth="yes"/>
      <point x="348" y="610"/>
      <point x="365" y="579"/>
      <point x="406" y="579" type="curve" smooth="yes"/>
      <point x="450" y="579"/>
      <point x="502" y="625"/>
      <point x="531" y="681" type="curve"/>
      <point x="502" y="691" type="line"/>
      <point x="484" y="657"/>
      <point x="450" y="610"/>
      <point x="412" y="610" type="curve" smooth="yes"/>
      <point x="391" y="610"/>
      <point x="382" y="617"/>
      <point x="364" y="656" type="curve"/>
    </contour>
    <contour>
      <point x="482" y="475" type="line"/>
      <point x="442" y="497"/>
      <point x="396" y="513"/>
      <point x="343" y="513" type="curve" smooth="yes"/>
      <point x="166" y="513"/>
      <point x="37" y="309"/>
      <point x="37" y="164" type="curve" smooth="yes"/>
      <point x="37" y="69"/>
      <point x="94" y="7"/>
      <point x="184" y="7" type="curve" smooth="yes"/>
      <point x="239" y="7"/>
      <point x="310" y="39"/>
      <point x="357" y="65" type="curve"/>
      <point x="344" y="2" type="line"/>
      <point x="384" y="10" type="line"/>
    </contour>
    <contour>
      <point x="106" y="45"/>
      <point x="77" y="106"/>
      <point x="77" y="171" type="curve" smooth="yes"/>
      <point x="77" y="235"/>
      <point x="147" y="477"/>
      <point x="340" y="477" type="curve" smooth="yes"/>
      <point x="375" y="477"/>
      <point x="420" y="459"/>
      <point x="442" y="450" type="curve"/>
      <point x="365" y="109" type="line"/>
      <point x="336" y="91"/>
      <point x="255" y="44"/>
      <point x="190" y="44" type="curve" smooth="yes"/>
    </contour>
  </outline>
</glyph>
<glyph name="aring" format="1">
  <advance width="494"/>
  <unicode hex="00E5"/>
  <outline>
    <contour>
      <point x="395" y="587"/>
      <point x="488" y="634"/>
      <point x="488" y="714" type="curve" smooth="yes"/>
      <point x="488" y="755"/>
      <point x="457" y="792"/>
      <point x="399" y="792" type="curve" smooth="yes"/>
      <point x="322" y="792"/>
      <point x="246" y="730"/>
      <point x="246" y="663" type="curve" smooth="yes"/>
      <point x="246" y="620"/>
      <point x="280" y="587"/>
      <point x="335" y="587" type="curve" smooth="yes"/>
    </contour>
    <contour>
      <point x="433" y="767"/>
      <point x="461" y="742"/>
      <point x="461" y="708" type="curve" smooth="yes"/>
      <point x="461" y="656"/>
      <point x="395" y="611"/>
      <point x="342" y="611" type="curve" smooth="yes"/>
      <point x="298" y="611"/>
      <point x="272" y="634"/>
      <point x="272" y="668" type="curve" smooth="yes"/>
      <point x="272" y="728"/>
      <point x="349" y="767"/>
      <point x="391" y="767" type="curve" smooth="yes"/>
    </contour>
    <contour>
      <point x="482" y="475" type="line"/>
      <point x="442" y="497"/>
      <point x="396" y="513"/>
      <point x="343" y="513" type="curve" smooth="yes"/>
      <point x="166" y="513"/>
      <point x="37" y="309"/>
      <point x="37" y="164" type="curve" smooth="yes"/>
      <point x="37" y="69"/>
      <point x="94" y="7"/>
      <point x="184" y="7" type="curve" smooth="yes"/>
      <point x="239" y="7"/>
      <point x="310" y="39"/>
      <point x="357" y="65" type="curve"/>
      <point x="344" y="2" type="line"/>
      <point x="384" y="10" type="line"/>
    </contour>
    <contour>
      <point x="106" y="45"/>
      <point x="77" y="106"/>
      <point x="77" y="171" type="curve" smooth="yes"/>
      <point x="77" y="235"/>
      <point x="147" y="477"/>
      <point x="340" y="477" type="curve" smooth="yes"/>
      <point x="375" y="477"/>
      <point x="420" y="459"/>
      <point x="442" y="450" type="curve"/>
      <point x="365" y="109" type="line"/>
      <point x="336" y="91"/>
      <point x="255" y="44"/>
      <point x="190" y="44" type="curve" smooth="yes"/>
    </contour>
  </outline>
</glyph>
<glyph name="ae" format="1">
  <advance width="854"/>
  <unicode hex="00E6"/>
  <outline>
    <contour>
      <point x="646" y="0"/>
      <point x="709" y="25"/>
      <point x="764" y="68" type="curve"/>
      <point x="746" y="91" type="line"/>
      <point x="699" y="54"/>
      <point x="644" y="32"/>
      <point x="592" y="32" type="curve" smooth="yes"/>
      <point x="511" y="32"/>
      <point x="450" y="83"/>
      <point x="429" y="159" type="curve"/>
      <point x="842" y="365" type="line"/>
      <point x="833" y="441"/>
      <point x="776" y="502"/>
      <point x="692" y="502" type="curve" smooth="yes"/>
      <point x="605" y="502"/>
      <point x="520" y="455"/>
      <point x="463" y="385" type="curve"/>
      <point x="482" y="475" type="line"/>
      <point x="442" y="497"/>
      <point x="396" y="513"/>
      <point x="343" y="513" type="curve" smooth="yes"/>
      <point x="168" y="513"/>
      <point x="37" y="309"/>
      <point x="37" y="164" type="curve" smooth="yes"/>
      <point x="37" y="69"/>
      <point x="94" y="7"/>
      <point x="184" y="7" type="curve" smooth="yes"/>
      <point x="239" y="7"/>
      <point x="310" y="39"/>
      <point x="357" y="65" type="curve"/>
      <point x="344" y="2" type="line"/>
      <point x="384" y="10" type="line"/>
      <point x="406" y="117" type="line"/>
      <point x="433" y="46"/>
      <point x="499" y="0"/>
      <point x="586" y="0" type="curve" smooth="yes"/>
    </contour>
    <contour>
      <point x="106" y="45"/>
      <point x="77" y="106"/>
      <point x="77" y="171" type="curve" smooth="yes"/>
      <point x="77" y="235"/>
      <point x="147" y="477"/>
      <point x="340" y="477" type="curve" smooth="yes"/>
      <point x="375" y="477"/>
      <point x="420" y="459"/>
      <point x="442" y="450" type="curve"/>
      <point x="365" y="109" type="line"/>
      <point x="336" y="91"/>
      <point x="255" y="44"/>
      <point x="190" y="44" type="curve" smooth="yes"/>
    </contour>
    <contour>
      <point x="740" y="470"/>
      <point x="785" y="436"/>
      <point x="805" y="379" type="curve"/>
      <point x="427" y="190" type="line"/>
      <point x="427" y="206" type="line" smooth="yes"/>
      <point x="427" y="339"/>
      <point x="552" y="470"/>
      <point x="687" y="470" type="curve" smooth="yes"/>
    </contour>
  </outline>
</glyph>
<glyph name="ecircumflex" format="1">
  <advance width="517"/>
  <unicode hex="00EA"/>
  <outline>
    <contour>
      <point x="223" y="575" type="line"/>
      <point x="359" y="667" type="line"/>
      <point x="440" y="577" type="line"/>
      <point x="469" y="603" type="line"/>
      <point x="373" y="718" type="line"/>
      <point x="207" y="603" type="line"/>
    </contour>
    <contour>
      <point x="299" y="0"/>
      <point x="362" y="25"/>
      <point x="417" y="68" type="curve"/>
      <point x="399" y="91" type="line"/>
      <point x="352" y="54"/>
      <point x="297" y="32"/>
      <point x="245" y="32" type="curve" smooth="yes"/>
      <point x="164" y="32"/>
      <point x="103" y="83"/>
      <point x="82" y="159" type="curve"/>
      <point x="495" y="365" type="line"/>
      <point x="486" y="441"/>
      <point x="429" y="502"/>
      <point x="345" y="502" type="curve" smooth="yes"/>
      <point x="193" y="502"/>
      <point x="44" y="356"/>
      <point x="44" y="196" type="curve" smooth="yes"/>
      <point x="44" y="83"/>
      <point x="123" y="0"/>
      <point x="239" y="0" type="curve" smooth="yes"/>
    </contour>
    <contour>
      <point x="391" y="470"/>
      <point x="436" y="436"/>
      <point x="456" y="379" type="curve"/>
      <point x="78" y="190" type="line"/>
      <point x="78" y="206" type="line" smooth="yes"/>
      <point x="78" y="339"/>
      <point x="203" y="470"/>
      <point x="338" y="470" type="curve" smooth="yes"/>
    </contour>
  </outline>
</glyph>
<glyph name="edieresis" format="1">
  <advance width="517"/>
  <unicode hex="00EB"/>
  <outline>
    <contour>
      <point x="315" y="669" type="line"/>
      <point x="258" y="660" type="line"/>
      <point x="238" y="596" type="line"/>
      <point x="294" y="604" type="line"/>
    </contour>
    <contour>
      <point x="482" y="669" type="line"/>
      <point x="425" y="660" type="line"/>
      <point x="404" y="596" type="line"/>
      <point x="460" y="604" type="line"/>
    </contour>
    <contour>
      <point x="299" y="0"/>
      <point x="362" y="25"/>
      <point x="417" y="68" type="curve"/>
      <point x="399" y="91" type="line"/>
      <point x="352" y="54"/>
      <point x="297" y="32"/>
      <point x="245" y="32" type="curve" smooth="yes"/>
      <point x="164" y="32"/>
      <point x="103" y="83"/>
      <point x="82" y="159" type="curve"/>
      <point x="495" y="365" type="line"/>
      <point x="486" y="441"/>
      <point x="429" y="502"/>
      <point x="345" y="502" type="curve" smooth="yes"/>
      <point x="193" y="502"/>
      <point x="44" y="356"/>
      <point x="44" y="196" type="curve" smooth="yes"/>
      <point x="44" y="83"/>
      <point x="123" y="0"/>
      <point x="239" y="0" type="curve" smooth="yes"/>
    </contour>
    <contour>
      <point x="391" y="470"/>
      <point x="436" y="436"/>
      <point x="456" y="379" type="curve"/>
      <point x="78" y="190" type="line"/>
      <point x="78" y="206" type="line" smooth="yes"/>
      <point x="78" y="339"/>
      <point x="203" y="470"/>
      <point x="338" y="470" type="curve" smooth="yes"/>
    </contour>
  </outline>
</glyph>
<glyph name="iacute" format="1">
  <advance width="195"/>
  <unicode hex="00ED"/>
  <outline>
    <contour>
      <point x="110" y="617" type="line"/>
      <point x="130" y="593" type="line"/>
      <point x="304" y="698" type="line"/>
      <point x="274" y="730" type="line"/>
    </contour>
    <contour>
      <point x="120" y="493" type="line"/>
      <point x="16" y="2" type="line"/>
      <point x="57" y="9" type="line"/>
      <point x="161" y="498" type="line"/>
    </contour>
  </outline>
</glyph>
<glyph name="icircumflex" format="1">
  <advance width="236"/>
  <unicode hex="00EE"/>
  <outline>
    <contour>
      <point x="89" y="575" type="line"/>
      <point x="225" y="667" type="line"/>
      <point x="306" y="577" type="line"/>
      <point x="335" y="603" type="line"/>
      <point x="239" y="718" type="line"/>
      <point x="74" y="603" type="line"/>
    </contour>
    <contour>
      <point x="154" y="493" type="line"/>
      <point x="50" y="2" type="line"/>
      <point x="91" y="9" type="line"/>
      <point x="195" y="498" type="line"/>
    </contour>
  </outline>
</glyph>
<glyph name="idieresis" format="1">
  <advance width="236"/>
  <unicode hex="00EF"/>
  <outline>
    <contour>
      <point x="167" y="669" type="line"/>
      <point x="110" y="660" type="line"/>
      <point x="89" y="596" type="line"/>
      <point x="145" y="604" type="line"/>
    </contour>
    <contour>
      <point x="333" y="669" type="line"/>
      <point x="276" y="660" type="line"/>
      <point x="256" y="596" type="line"/>
      <point x="312" y="604" type="line"/>
    </contour>
    <contour>
      <point x="148" y="493" type="line"/>
      <point x="44" y="2" type="line"/>
      <point x="86" y="9" type="line"/>
      <point x="190" y="498" type="line"/>
    </contour>
  </outline>
</glyph>
<glyph name="ntilde" format="1">
  <advance width="526"/>
  <unicode hex="00F1"/>
  <outline>
    <contour>
      <point x="156" y="500" type="line"/>
      <point x="117" y="493" type="line"/>
      <point x="13" y="2" type="line"/>
      <point x="51" y="10" type="line"/>
      <point x="76" y="126" type="line" smooth="yes"/>
      <point x="92" y="202"/>
      <point x="127" y="272"/>
      <point x="176" y="337" type="curve" smooth="yes"/>
      <point x="257" y="445"/>
      <point x="318" y="467"/>
      <point x="368" y="467" type="curve" smooth="yes"/>
      <point x="422" y="467"/>
      <point x="444" y="441"/>
      <point x="444" y="377" type="curve" smooth="yes"/>
      <point x="444" y="323"/>
      <point x="428" y="240"/>
      <point x="408" y="144" type="curve" smooth="yes"/>
      <point x="378" y="3" type="line"/>
      <point x="416" y="10" type="line"/>
      <point x="437" y="109" type="line" smooth="yes"/>
      <point x="465" y="244"/>
      <point x="480" y="333"/>
      <point x="481" y="397" type="curve"/>
      <point x="477" y="465"/>
      <point x="443" y="501"/>
      <point x="378" y="501" type="curve" smooth="yes"/>
      <point x="268" y="501"/>
      <point x="155" y="383"/>
      <point x="109" y="282" type="curve"/>
    </contour>
    <contour>
      <point x="373" y="681"/>
      <point x="358" y="712"/>
      <point x="316" y="712" type="curve" smooth="yes"/>
      <point x="264" y="712"/>
      <point x="221" y="661"/>
      <point x="196" y="617" type="curve"/>
      <point x="224" y="607" type="line"/>
      <point x="240" y="638"/>
      <point x="275" y="680"/>
      <point x="309" y="680" type="curve" smooth="yes"/>
      <point x="329" y="680"/>
      <point x="339" y="674"/>
      <point x="357" y="637" type="curve" smooth="yes"/>
      <point x="370" y="610"/>
      <point x="387" y="579"/>
      <point x="428" y="579" type="curve" smooth="yes"/>
      <point x="472" y="579"/>
      <point x="524" y="625"/>
      <point x="553" y="681" type="curve"/>
      <point x="524" y="691" type="line"/>
      <point x="506" y="657"/>
      <point x="472" y="610"/>
      <point x="434" y="610" type="curve" smooth="yes"/>
      <point x="413" y="610"/>
      <point x="404" y="617"/>
      <point x="386" y="656" type="curve"/>
    </contour>
  </outline>
</glyph>
<glyph name="oacute" format="1">
  <advance width="525"/>
  <unicode hex="00F3"/>
  <outline>
    <contour>
      <point x="304" y="617" type="line"/>
      <point x="324" y="593" type="line"/>
      <point x="498" y="698" type="line"/>
      <point x="468" y="730" type="line"/>
    </contour>
    <contour>
      <point x="334" y="0"/>
      <point x="492" y="154"/>
      <point x="492" y="325" type="curve" smooth="yes"/>
      <point x="492" y="424"/>
      <point x="431" y="500"/>
      <point x="335" y="500" type="curve" smooth="yes"/>
      <point x="191" y="500"/>
      <point x="40" y="347"/>
      <point x="40" y="176" type="curve" smooth="yes"/>
      <point x="40" y="76"/>
      <point x="100" y="0"/>
      <point x="197" y="0" type="curve" smooth="yes"/>
    </contour>
    <contour>
      <point x="401" y="467"/>
      <point x="452" y="401"/>
      <point x="452" y="315" type="curve" smooth="yes"/>
      <point x="452" y="170"/>
      <point x="316" y="32"/>
      <point x="205" y="32" type="curve" smooth="yes"/>
      <point x="124" y="32"/>
      <point x="79" y="94"/>
      <point x="79" y="177" type="curve" smooth="yes"/>
      <point x="79" y="325"/>
      <point x="208" y="467"/>
      <point x="323" y="467" type="curve" smooth="yes"/>
    </contour>
  </outline>
</glyph>
<glyph name="oslash" format="1">
  <advance width="525"/>
  <unicode hex="00F8"/>
  <outline>
    <contour>
      <point x="334" y="0"/>
      <point x="492" y="154"/>
      <point x="492" y="325" type="curve" smooth="yes"/>
      <point x="492" y="379"/>
      <point x="474" y="425"/>
      <point x="442" y="457" type="curve"/>
      <point x="496" y="526" type="line"/>
      <point x="473" y="543" type="line"/>
      <point x="420" y="476" type="line"/>
      <point x="396" y="491"/>
      <point x="367" y="500"/>
      <point x="335" y="500" type="curve" smooth="yes"/>
      <point x="190" y="500"/>
      <point x="40" y="347"/>
      <point x="40" y="175" type="curve" smooth="yes"/>
      <point x="40" y="126"/>
      <point x="54" y="82"/>
      <point x="81" y="51" type="curve"/>
      <point x="28" y="-16" type="line"/>
      <point x="51" y="-32" type="line"/>
      <point x="101" y="32" type="line"/>
      <point x="127" y="12"/>
      <point x="159" y="0"/>
      <point x="197" y="0" type="curve" smooth="yes"/>
    </contour>
    <contour>
      <point x="172" y="32"/>
      <point x="146" y="43"/>
      <point x="124" y="61" type="curve"/>
      <point x="416" y="425" type="line"/>
      <point x="439" y="398"/>
      <point x="452" y="359"/>
      <point x="452" y="315" type="curve" smooth="yes"/>
      <point x="452" y="189"/>
      <point x="333" y="32"/>
      <point x="205" y="32" type="curve" smooth="yes"/>
    </contour>
    <contour>
      <point x="350" y="467"/>
      <point x="374" y="458"/>
      <point x="394" y="444" type="curve"/>
      <point x="105" y="82" type="line"/>
      <point x="88" y="107"/>
      <point x="79" y="140"/>
      <point x="79" y="177" type="curve" smooth="yes"/>
      <point x="79" y="325"/>
      <point x="208" y="467"/>
      <point x="323" y="467" type="curve" smooth="yes"/>
    </contour>
  </outline>
</glyph>
<glyph name="ucircumflex" format="1">
  <advance width="506"/>
  <unicode hex="00FB"/>
  <outline>
    <contour>
      <point x="232" y="575" type="line"/>
      <point x="368" y="667" type="line"/>
      <point x="449" y="577" type="line"/>
      <point x="478" y="603" type="line"/>
      <point x="382" y="718" type="line"/>
      <point x="216" y="603" type="line"/>
    </contour>
    <contour>
      <point x="127" y="368"/>
      <point x="158" y="465"/>
      <point x="171" y="502" type="curve"/>
      <point x="134" y="495" type="line"/>
      <point x="108" y="425"/>
      <point x="84" y="335"/>
      <point x="75" y="291" type="curve" smooth="yes"/>
      <point x="62" y="230"/>
      <point x="49" y="168"/>
      <point x="49" y="116" type="curve" smooth="yes"/>
      <point x="49" y="45"/>
      <point x="74" y="-6"/>
      <point x="160" y="-6" type="curve" smooth="yes"/>
      <point x="235" y="-6"/>
      <point x="321" y="47"/>
      <point x="369" y="90" type="curve"/>
      <point x="350" y="2" type="line"/>
      <point x="395" y="9" type="line"/>
      <point x="500" y="502" type="line"/>
      <point x="460" y="495" type="line"/>
      <point x="391" y="175" type="line" smooth="yes"/>
      <point x="385" y="149"/>
      <point x="375" y="132"/>
      <point x="365" y="123" type="curve" smooth="yes"/>
      <point x="336" y="97"/>
      <point x="244" y="26"/>
      <point x="168" y="26" type="curve" smooth="yes"/>
      <point x="104" y="26"/>
      <point x="84" y="66"/>
      <point x="84" y="123" type="curve" smooth="yes"/>
      <point x="84" y="171"/>
      <point x="98" y="231"/>
      <point x="110" y="291" type="curve" smooth="yes"/>
    </contour>
  </outline>
</glyph>
<glyph name="abreve" format="1">
  <advance width="494"/>
  <unicode hex="0103"/>
  <outline>
    <contour>
      <point x="482" y="475" type="line"/>
      <point x="442" y="497"/>
      <point x="396" y="513"/>
      <point x="343" y="513" type="curve" smooth="yes"/>
      <point x="175" y="513"/>
      <point x="37" y="309"/>
      <point x="37" y="164" type="curve" smooth="yes"/>
      <point x="37" y="69"/>
      <point x="94" y="7"/>
      <point x="184" y="7" type="curve" smooth="yes"/>
      <point x="239" y="7"/>
      <point x="310" y="39"/>
      <point x="357" y="65" type="curve"/>
      <point x="344" y="2" type="line"/>
      <point x="384" y="10" type="line"/>
    </contour>
    <contour>
      <point x="106" y="45"/>
      <point x="77" y="106"/>
      <point x="77" y="171" type="curve" smooth="yes"/>
      <point x="77" y="235"/>
      <point x="147" y="477"/>
      <point x="340" y="477" type="curve" smooth="yes"/>
      <point x="375" y="477"/>
      <point x="420" y="459"/>
      <point x="442" y="450" type="curve"/>
      <point x="365" y="109" type="line"/>
      <point x="336" y="91"/>
      <point x="255" y="44"/>
      <point x="190" y="44" type="curve" smooth="yes"/>
    </contour>
    <contour>
      <point x="319" y="609"/>
      <point x="271" y="621"/>
      <point x="246" y="679" type="curve"/>
      <point x="226" y="662" type="line"/>
      <point x="241" y="614"/>
      <point x="288" y="582"/>
      <point x="354" y="582" type="curve" smooth="yes"/>
      <point x="413" y="582"/>
      <point x="478" y="617"/>
      <point x="509" y="666" type="curve"/>
      <point x="495" y="683" type="line"/>
      <point x="464" y="634"/>
      <point x="411" y="609"/>
      <point x="358" y="609" type="curve" smooth="yes"/>
    </contour>
  </outline>
</glyph>
<glyph name="Ccaron" format="1">
  <advance width="621"/>
  <unicode hex="010C"/>
  <outline>
    <contour>
      <point x="591" y="884" type="line"/>
      <point x="456" y="792" type="line"/>
      <point x="377" y="883" type="line"/>
      <point x="347" y="855" type="line"/>
      <point x="442" y="743" type="line"/>
      <point x="607" y="854" type="line"/>
    </contour>
    <contour>
      <point x="379" y="-1"/>
      <point x="479" y="45"/>
      <point x="546" y="124" type="curve"/>
      <point x="528" y="147" type="line"/>
      <point x="467" y="70"/>
      <point x="385" y="33"/>
      <point x="286" y="33" type="curve" smooth="yes"/>
      <point x="167" y="33"/>
      <point x="87" y="120"/>
      <point x="87" y="235" type="curve" smooth="yes"/>
      <point x="87" y="367"/>
      <point x="253" y="647"/>
      <point x="423" y="647" type="curve" smooth="yes"/>
      <point x="510" y="647"/>
      <point x="553" y="609"/>
      <point x="575" y="575" type="curve"/>
      <point x="570" y="555" type="line"/>
      <point x="597" y="555" type="line"/>
      <point x="619" y="657" type="line"/>
      <point x="592" y="657" type="line"/>
      <point x="585" y="623" type="line"/>
      <point x="543" y="661"/>
      <point x="490" y="681"/>
      <point x="436" y="681" type="curve" smooth="yes"/>
      <point x="230" y="681"/>
      <point x="52" y="381"/>
      <point x="52" y="226" type="curve" smooth="yes"/>
      <point x="52" y="93"/>
      <point x="145" y="-1"/>
      <point x="278" y="-1" type="curve" smooth="yes"/>
    </contour>
  </outline>
</glyph>
<glyph name="Ecaron" format="1">
  <advance width="601"/>
  <unicode hex="011A"/>
  <outline>
    <contour>
      <point x="547" y="884" type="line"/>
      <point x="411" y="792" type="line"/>
      <point x="333" y="883" type="line"/>
      <point x="303" y="855" type="line"/>
      <point x="397" y="743" type="line"/>
      <point x="562" y="854" type="line"/>
    </contour>
    <contour>
      <point x="57" y="37" type="line"/>
      <point x="121" y="336" type="line"/>
      <point x="502" y="336" type="line"/>
      <point x="521" y="373" type="line"/>
      <point x="129" y="373" type="line"/>
      <point x="186" y="644" type="line"/>
      <point x="614" y="644" type="line"/>
      <point x="630" y="681" type="line"/>
      <point x="157" y="681" type="line"/>
      <point x="13" y="0" type="line"/>
      <point x="475" y="0" type="line"/>
      <point x="497" y="37" type="line"/>
    </contour>
  </outline>
</glyph>
<glyph name="lacute" format="1">
  <advance width="216"/>
  <unicode hex="013A"/>
  <outline>
    <contour>
      <point x="163" y="793" type="line"/>
      <point x="183" y="769" type="line"/>
      <point x="357" y="874" type="line"/>
      <point x="326" y="906" type="line"/>
    </contour>
    <contour>
      <point x="182" y="689" type="line"/>
      <point x="36" y="2" type="line"/>
      <point x="74" y="9" type="line"/>
      <point x="221" y="698" type="line"/>
    </contour>
  </outline>
</glyph>
<glyph name="nacute" format="1">
  <advance width="526"/>
  <unicode hex="0144"/>
  <outline>
    <contour>
      <point x="292" y="617" type="line"/>
      <point x="312" y="593" type="line"/>
      <point x="487" y="698" type="line"/>
      <point x="456" y="730" type="line"/>
    </contour>
    <contour>
      <point x="156" y="500" type="line"/>
      <point x="117" y="493" type="line"/>
      <point x="13" y="2" type="line"/>
      <point x="51" y="10" type="line"/>
      <point x="76" y="126" type="line" smooth="yes"/>
      <point x="92" y="202"/>
      <point x="127" y="272"/>
      <point x="176" y="337" type="curve" smooth="yes"/>
      <point x="257" y="445"/>
      <point x="318" y="467"/>
      <point x="368" y="467" type="curve" smooth="yes"/>
      <point x="422" y="467"/>
      <point x="444" y="441"/>
      <point x="444" y="377" type="curve" smooth="yes"/>
      <point x="444" y="323"/>
      <point x="428" y="240"/>
      <point x="408" y="144" type="curve" smooth="yes"/>
      <point x="378" y="3" type="line"/>
      <point x="416" y="10" type="line"/>
      <point x="437" y="109" type="line" smooth="yes"/>
      <point x="465" y="244"/>
      <point x="480" y="333"/>
      <point x="481" y="397" type="curve"/>
      <point x="477" y="465"/>
      <point x="443" y="501"/>
      <point x="378" y="501" type="curve" smooth="yes"/>
      <point x="268" y="501"/>
      <point x="155" y="383"/>
      <point x="109" y="282" type="curve"/>
    </contour>
  </outline>
</glyph>
<glyph name="ohungarumlaut" format="1">
  <advance width="545"/>
  <unicode hex="0151"/>
  <outline>
    <contour>
      <point x="230" y="617" type="line"/>
      <point x="250" y="593" type="line"/>
      <point x="424" y="698" type="line"/>
      <point x="393" y="730" type="line"/>
    </contour>
    <contour>
      <point x="397" y="617" type="line"/>
      <point x="418" y="593" type="line"/>
      <point x="592" y="698" type="line"/>
      <point x="560" y="730" type="line"/>
    </contour>
    <contour>
      <point x="334" y="0"/>
      <point x="492" y="154"/>
      <point x="492" y="325" type="curve" smooth="yes"/>
      <point x="492" y="424"/>
      <point x="431" y="500"/>
      <point x="335" y="500" type="curve" smooth="yes"/>
      <point x="191" y="500"/>
      <point x="40" y="347"/>
      <point x="40" y="176" type="curve" smooth="yes"/>
      <point x="40" y="76"/>
      <point x="100" y="0"/>
      <point x="197" y="0" type="curve" smooth="yes"/>
    </contour>
    <contour>
      <point x="401" y="467"/>
      <point x="452" y="401"/>
      <point x="452" y="315" type="curve" smooth="yes"/>
      <point x="452" y="170"/>
      <point x="316" y="32"/>
      <point x="205" y="32" type="curve" smooth="yes"/>
      <point x="124" y="32"/>
      <point x="79" y="94"/>
      <point x="79" y="177" type="curve" smooth="yes"/>
      <point x="79" y="325"/>
      <point x="208" y="467"/>
      <point x="323" y="467" type="curve" smooth="yes"/>
    </contour>
  </outline>
</glyph>
<glyph name="oe" format="1">
  <advance width="901"/>
  <unicode hex="0153"/>
  <outline>
    <contour>
      <point x="560" y="32"/>
      <point x="499" y="83"/>
      <point x="478" y="159" type="curve"/>
      <point x="891" y="365" type="line"/>
      <point x="881" y="441"/>
      <point x="817" y="502"/>
      <point x="739" y="502" type="curve" smooth="yes"/>
      <point x="641" y="502"/>
      <point x="533" y="432"/>
      <point x="481" y="342" type="curve"/>
      <point x="467" y="432"/>
      <point x="407" y="500"/>
      <point x="331" y="500" type="curve" smooth="yes"/>
      <point x="187" y="500"/>
      <point x="36" y="347"/>
      <point x="36" y="176" type="curve" smooth="yes"/>
      <point x="36" y="76"/>
      <point x="95" y="0"/>
      <point x="191" y="0" type="curve" smooth="yes"/>
      <point x="277" y="0"/>
      <point x="379" y="70"/>
      <point x="441" y="173" type="curve"/>
      <point x="455" y="76"/>
      <point x="531" y="0"/>
      <point x="635" y="0" type="curve" smooth="yes"/>
      <point x="695" y="0"/>
      <point x="758" y="25"/>
      <point x="813" y="68" type="curve"/>
      <point x="806" y="75"/>
      <point x="803" y="81"/>
      <point x="795" y="91" type="curve"/>
      <point x="748" y="54"/>
      <point x="693" y="32"/>
      <point x="641" y="32" type="curve" smooth="yes"/>
    </contour>
    <contour>
      <point x="415" y="141"/>
      <point x="297" y="29"/>
      <point x="199" y="29" type="curve" smooth="yes"/>
      <point x="118" y="29"/>
      <point x="72" y="94"/>
      <point x="72" y="178" type="curve" smooth="yes"/>
      <point x="72" y="325"/>
      <point x="204" y="470"/>
      <point x="319" y="470" type="curve" smooth="yes"/>
      <point x="429" y="470"/>
      <point x="456" y="348"/>
      <point x="442" y="266" type="curve"/>
    </contour>
    <contour>
      <point x="504" y="372"/>
      <point x="617" y="470"/>
      <point x="734" y="470" type="curve" smooth="yes"/>
      <point x="787" y="470"/>
      <point x="832" y="436"/>
      <point x="852" y="379" type="curve"/>
      <point x="474" y="190" type="line"/>
      <point x="474" y="206" type="line" smooth="yes"/>
      <point x="474" y="223"/>
      <point x="475" y="237"/>
      <point x="478" y="251" type="curve" smooth="yes"/>
    </contour>
  </outline>
</glyph>
<glyph name="racute" format="1">
  <advance width="391"/>
  <unicode hex="0155"/>
  <outline>
    <contour>
      <point x="222" y="617" type="line"/>
      <point x="242" y="593" type="line"/>
      <point x="416" y="698" type="line"/>
      <point x="385" y="730" type="line"/>
    </contour>
    <contour>
      <point x="157" y="500" type="line"/>
      <point x="118" y="493" type="line"/>
      <point x="14" y="2" type="line"/>
      <point x="52" y="9" type="line"/>
      <point x="104" y="252" type="line" smooth="yes"/>
      <point x="126" y="357"/>
      <point x="254" y="466"/>
      <point x="332" y="466" type="curve" smooth="yes"/>
      <point x="362" y="466"/>
      <point x="371" y="455"/>
      <point x="371" y="439" type="curve" smooth="yes"/>
      <point x="371" y="433"/>
      <point x="369" y="426"/>
      <point x="368" y="419" type="curve"/>
      <point x="363" y="397" type="line"/>
      <point x="401" y="404" type="line"/>
      <point x="409" y="438" type="line" smooth="yes"/>
      <point x="410" y="442"/>
      <point x="410" y="446"/>
      <point x="410" y="449" type="curve" smooth="yes"/>
      <point x="410" y="480"/>
      <point x="384" y="502"/>
      <point x="347" y="502" type="curve" smooth="yes"/>
      <point x="262" y="502"/>
      <point x="169" y="421"/>
      <point x="128" y="366" type="curve"/>
    </contour>
  </outline>
</glyph>
<glyph name="scedilla" format="1">
  <advance width="450"/>
  <unicode hex="015F"/>
  <outline>
    <contour>
      <point x="432" y="394" type="line"/>
      <point x="436" y="410"/>
      <point x="436" y="417"/>
      <point x="436" y="424" type="curve" smooth="yes"/>
      <point x="436" y="490"/>
      <point x="357" y="505"/>
      <point x="307" y="505" type="curve" smooth="yes"/>
      <point x="237" y="505"/>
      <point x="105" y="481"/>
      <point x="105" y="360" type="curve" smooth="yes"/>
      <point x="105" y="297"/>
      <point x="161" y="274"/>
      <point x="218" y="254" type="curve" smooth="yes"/>
      <point x="280" y="233"/>
      <point x="344" y="217"/>
      <point x="344" y="160" type="curve" smooth="yes"/>
      <point x="344" y="84"/>
      <point x="262" y="31"/>
      <point x="185" y="31" type="curve" smooth="yes"/>
      <point x="126" y="31"/>
      <point x="71" y="59"/>
      <point x="60" y="112" type="curve"/>
      <point x="24" y="107" type="line"/>
      <point x="32" y="43"/>
      <point x="85" y="8"/>
      <point x="152" y="1" type="curve"/>
      <point x="122" y="-52" type="line"/>
      <point x="139" y="-72" type="line"/>
      <point x="149" y="-66"/>
      <point x="166" y="-64"/>
      <point x="172" y="-64" type="curve" smooth="yes"/>
      <point x="201" y="-64"/>
      <point x="220" y="-84"/>
      <point x="220" y="-112" type="curve" smooth="yes"/>
      <point x="220" y="-152"/>
      <point x="184" y="-186"/>
      <point x="146" y="-186" type="curve" smooth="yes"/>
      <point x="132" y="-186"/>
      <point x="114" y="-180"/>
      <point x="105" y="-168" type="curve"/>
      <point x="84" y="-184" type="line"/>
      <point x="97" y="-200"/>
      <point x="117" y="-209"/>
      <point x="141" y="-209" type="curve" smooth="yes"/>
      <point x="194" y="-209"/>
      <point x="245" y="-160"/>
      <point x="245" y="-105" type="curve" smooth="yes"/>
      <point x="245" y="-65"/>
      <point x="215" y="-41"/>
      <point x="169" y="-41" type="curve" smooth="yes"/>
      <point x="155" y="-41" type="line"/>
      <point x="165" y="0" type="line"/>
      <point x="179" y="0" type="line" smooth="yes"/>
      <point x="234" y="0"/>
      <point x="383" y="35"/>
      <point x="383" y="168" type="curve" smooth="yes"/>
      <point x="383" y="225"/>
      <point x="337" y="258"/>
      <point x="249" y="284" type="curve" smooth="yes"/>
      <point x="179" y="304"/>
      <point x="142" y="327"/>
      <point x="142" y="365" type="curve" smooth="yes"/>
      <point x="142" y="424"/>
      <point x="190" y="475"/>
      <point x="300" y="475" type="curve" smooth="yes"/>
      <point x="347" y="475"/>
      <point x="402" y="459"/>
      <point x="402" y="408" type="curve" smooth="yes"/>
      <point x="402" y="402"/>
      <point x="402" y="395"/>
      <point x="400" y="386" type="curve"/>
    </contour>
  </outline>
</glyph>
<glyph name="uni0163" format="1">
  <advance width="363"/>
  <unicode hex="0163"/>
  <outline>
    <contour>
      <point x="399" y="502" type="line"/>
      <point x="256" y="502" type="line"/>
      <point x="293" y="676" type="line"/>
      <point x="253" y="669" type="line"/>
      <point x="217" y="502" type="line"/>
      <point x="73" y="502" type="line"/>
      <point x="65" y="465" type="line"/>
      <point x="209" y="465" type="line"/>
      <point x="111" y="2" type="line"/>
      <point x="151" y="9" type="line"/>
      <point x="248" y="465" type="line"/>
      <point x="391" y="465" type="line"/>
    </contour>
    <contour>
      <point x="124" y="-44" type="line"/>
      <point x="72" y="-89" type="line"/>
      <point x="105" y="-110" type="line"/>
      <point x="28" y="-210" type="line"/>
      <point x="56" y="-229" type="line"/>
      <point x="175" y="-74" type="line"/>
    </contour>
  </outline>
</glyph>
<glyph name="Tcaron" format="1">
  <advance width="512"/>
  <unicode hex="0164"/>
  <outline>
    <contour>
      <point x="505" y="884" type="line"/>
      <point x="371" y="792" type="line"/>
      <point x="292" y="883" type="line"/>
      <point x="262" y="855" type="line"/>
      <point x="357" y="743" type="line"/>
      <point x="521" y="854" type="line"/>
    </contour>
    <contour>
      <point x="178" y="2" type="line"/>
      <point x="217" y="9" type="line"/>
      <point x="352" y="644" type="line"/>
      <point x="590" y="644" type="line"/>
      <point x="598" y="681" type="line"/>
      <point x="100" y="681" type="line"/>
      <point x="92" y="644" type="line"/>
      <point x="314" y="644" type="line"/>
    </contour>
  </outline>
</glyph>
<glyph name="zacute" format="1">
  <advance width="443"/>
  <unicode hex="017A"/>
  <outline>
    <contour>
      <point x="349" y="0" type="line"/>
      <point x="363" y="37" type="line"/>
      <point x="30" y="37" type="line"/>
      <point x="464" y="468" type="line"/>
      <point x="453" y="502" type="line"/>
      <point x="116" y="502" type="line"/>
      <point x="100" y="465" type="line"/>
      <point x="418" y="465" type="line"/>
      <point x="-15" y="35" type="line"/>
      <point x="-4" y="0" type="line"/>
    </contour>
    <contour>
      <point x="227" y="617" type="line"/>
      <point x="247" y="593" type="line"/>
      <point x="422" y="698" type="line"/>
      <point x="391" y="730" type="line"/>
    </contour>
  </outline>
</glyph>
<glyph name="zcaron" format="1">
  <advance width="443"/>
  <unicode hex="017E"/>
  <outline>
    <contour>
      <point x="452" y="718" type="line"/>
      <point x="316" y="625" type="line"/>
      <point x="237" y="717" type="line"/>
      <point x="207" y="688" type="line"/>
      <point x="302" y="575" type="line"/>
      <point x="468" y="687" type="line"/>
    </contour>
    <contour>
      <point x="349" y="0" type="line"/>
      <point x="363" y="37" type="line"/>
      <point x="30" y="37" type="line"/>
      <point x="464" y="468" type="line"/>
      <point x="453" y="502" type="line"/>
      <point x="116" y="502" type="line"/>
      <point x="100" y="465" type="line"/>
      <point x="418" y="465" type="line"/>
      <point x="-15" y="35" type="line"/>
      <point x="-4" y="0" type="line"/>
    </contour>
  </outline>
</glyph>
<glyph name="breve" format="1">
  <advance width="490"/>
  <unicode hex="02D8"/>
  <outline>
    <contour>
      <point x="288" y="609"/>
      <point x="240" y="621"/>
      <point x="215" y="679" type="curve"/>
      <point x="195" y="662" type="line"/>
      <point x="210" y="614"/>
      <point x="257" y="582"/>
      <point x="323" y="582" type="curve" smooth="yes"/>
      <point x="382" y="582"/>
      <point x="447" y="617"/>
      <point x="478" y="666" type="curve"/>
      <point x="464" y="683" type="line"/>
      <point x="433" y="634"/>
      <point x="380" y="609"/>
      <point x="327" y="609" type="curve" smooth="yes"/>
    </contour>
  </outline>
</glyph>
<glyph name="hungarumlaut" format="1">
  <advance width="490"/>
  <unicode hex="02DD"/>
  <outline>
    <contour>
      <point x="153" y="617" type="line"/>
      <point x="173" y="593" type="line"/>
      <point x="347" y="698" type="line"/>
      <point x="317" y="730" type="line"/>
    </contour>
    <contour>
      <point x="320" y="617" type="line"/>
      <point x="341" y="593" type="line"/>
      <point x="515" y="698" type="line"/>
      <point x="484" y="730" type="line"/>
    </contour>
  </outline>
</glyph>
<glyph name="endash" format="1">
  <advance width="586"/>
  <unicode hex="2013"/>
  <outline>
    <contour>
      <point x="511" y="231" type="line"/>
      <point x="526" y="267" type="line"/>
      <point x="84" y="267" type="line"/>
      <point x="69" y="231" type="line"/>
    </contour>
  </outline>
</glyph>
<glyph name="quotedblleft" format="1">
  <advance width="338"/>
  <unicode hex="201C"/>
  <outline>
    <contour>
      <point x="323" y="570" type="line"/>
      <point x="375" y="614" type="line"/>
      <point x="342" y="636" type="line"/>
      <point x="419" y="736" type="line"/>
      <point x="391" y="755" type="line"/>
      <point x="272" y="600" type="line"/>
    </contour>
    <contour>
      <point x="150" y="570" type="line"/>
      <point x="202" y="614" type="line"/>
      <point x="169" y="636" type="line"/>
      <point x="247" y="736" type="line"/>
      <point x="218" y="755" type="line"/>
      <point x="99" y="600" type="line"/>
    </contour>
  </outline>
</glyph>
<glyph name="bullet" format="1">
  <advance width="368"/>
  <unicode hex="2022"/>
  <outline>
    <contour>
      <point x="275" y="296"/>
      <point x="251" y="335"/>
      <point x="205" y="335" type="curve" smooth="yes"/>
      <point x="155" y="335"/>
      <point x="103" y="289"/>
      <point x="103" y="237" type="curve" smooth="yes"/>
      <point x="103" y="199"/>
      <point x="130" y="171"/>
      <point x="170" y="171" type="curve" smooth="yes"/>
      <point x="215" y="171"/>
      <point x="259" y="208"/>
      <point x="268" y="253" type="curve"/>
    </contour>
  </outline>
</glyph>
<glyph name="ellipsis" format="1">
  <advance width="724"/>
  <unicode hex="2026"/>
  <outline>
    <contour>
      <point x="93" y="74" type="line"/>
      <point x="37" y="66" type="line"/>
      <point x="17" y="1" type="line"/>
      <point x="72" y="9" type="line"/>
    </contour>
    <contour>
      <point x="360" y="74" type="line"/>
      <point x="304" y="66" type="line"/>
      <point x="283" y="1" type="line"/>
      <point x="339" y="9" type="line"/>
    </contour>
    <contour>
      <point x="626" y="74" type="line"/>
      <point x="570" y="66" type="line"/>
      <point x="550" y="1" type="line"/>
      <point x="605" y="9" type="line"/>
    </contour>
  </outline>
</glyph>
<glyph name="guilsinglleft" format="1">
  <advance width="394"/>
  <unicode hex="2039"/>
  <outline>
    <contour>
      <point x="239" y="71" type="line"/>
      <point x="267" y="98" type="line"/>
      <point x="132" y="249" type="line"/>
      <point x="351" y="407" type="line"/>
      <point x="333" y="433" type="line"/>
      <point x="78" y="249" type="line"/>
    </contour>
  </outline>
</glyph>
<glyph name=".notdef" format="1">
  <advance width="490"/>
  <outline>
    <contour>
      <point x="20" y="681" type="line"/>
      <point x="20" y="0" type="line"/>
      <point x="475" y="0" type="line"/>
      <point x="475" y="681" type="line"/>
    </contour>
    <contour>
      <point x="234" y="342" type="line"/>
      <point x="41" y="46" type="line"/>
      <point x="41" y="655" type="line"/>
    </contour>
    <contour>
      <point x="62" y="660" type="line"/>
      <point x="442" y="660" type="line"/>
      <point x="246" y="361" type="line"/>
    </contour>
    <contour>
      <point x="246" y="320" type="line"/>
      <point x="430" y="21" type="line"/>
      <point x="50" y="21" type="line"/>
    </contour>
    <contour>
      <point x="258" y="339" type="line"/>
      <point x="455" y="641" type="line"/>
      <point x="455" y="21" type="line"/>
    </contour>
  </outline>
</glyph>
